G04 Layer_Color=16711935*
%FSLAX44Y44*%
%MOMM*%
G71*
G01*
G75*
%ADD34R,1.2032X1.5032*%
%ADD35R,1.5032X1.2032*%
%ADD38C,1.2032*%
%ADD39R,1.2032X1.2032*%
%ADD40R,1.2032X1.2032*%
%ADD41C,1.7032*%
%ADD42R,1.7032X1.7032*%
G04:AMPARAMS|DCode=43|XSize=0.8032mm|YSize=1.2032mm|CornerRadius=0.1766mm|HoleSize=0mm|Usage=FLASHONLY|Rotation=90.000|XOffset=0mm|YOffset=0mm|HoleType=Round|Shape=RoundedRectangle|*
%AMROUNDEDRECTD43*
21,1,0.8032,0.8500,0,0,90.0*
21,1,0.4500,1.2032,0,0,90.0*
1,1,0.3532,0.4250,0.2250*
1,1,0.3532,0.4250,-0.2250*
1,1,0.3532,-0.4250,-0.2250*
1,1,0.3532,-0.4250,0.2250*
%
%ADD43ROUNDEDRECTD43*%
%ADD44R,1.6032X1.4032*%
%ADD45R,1.4032X1.6032*%
%ADD46R,1.3032X0.8532*%
G04:AMPARAMS|DCode=47|XSize=4.2032mm|YSize=2.3032mm|CornerRadius=0.2066mm|HoleSize=0mm|Usage=FLASHONLY|Rotation=0.000|XOffset=0mm|YOffset=0mm|HoleType=Round|Shape=RoundedRectangle|*
%AMROUNDEDRECTD47*
21,1,4.2032,1.8900,0,0,0.0*
21,1,3.7900,2.3032,0,0,0.0*
1,1,0.4132,1.8950,-0.9450*
1,1,0.4132,-1.8950,-0.9450*
1,1,0.4132,-1.8950,0.9450*
1,1,0.4132,1.8950,0.9450*
%
%ADD47ROUNDEDRECTD47*%
G36*
X77500Y139000D02*
X67500D01*
Y144500D01*
X77500D01*
Y139000D01*
D02*
G37*
G36*
X58500D02*
X48500D01*
Y144500D01*
X58500D01*
Y139000D01*
D02*
G37*
G36*
X77500Y132500D02*
X67500D01*
Y138000D01*
X77500D01*
Y132500D01*
D02*
G37*
G36*
X58500D02*
X48500D01*
Y138000D01*
X58500D01*
Y132500D01*
D02*
G37*
G36*
X77500Y126000D02*
X67500D01*
Y131500D01*
X77500D01*
Y126000D01*
D02*
G37*
G36*
X58500D02*
X48500D01*
Y131500D01*
X58500D01*
Y126000D01*
D02*
G37*
G36*
X77500Y119500D02*
X67500D01*
Y125000D01*
X77500D01*
Y119500D01*
D02*
G37*
G36*
X58500D02*
X48500D01*
Y125000D01*
X58500D01*
Y119500D01*
D02*
G37*
G36*
X130250Y61250D02*
X140000D01*
Y55750D01*
Y50750D01*
Y45750D01*
Y40750D01*
Y35750D01*
Y30750D01*
X130250D01*
Y21000D01*
X99750D01*
Y30750D01*
X90000D01*
Y35750D01*
Y40750D01*
Y45750D01*
Y50750D01*
Y55750D01*
Y61250D01*
X99750D01*
Y71000D01*
X130250D01*
Y61250D01*
D02*
G37*
%LPC*%
G36*
X130000Y61000D02*
X100000D01*
Y55750D01*
Y50750D01*
Y45750D01*
Y40750D01*
Y35750D01*
Y31000D01*
X130000D01*
Y35750D01*
Y40750D01*
Y45750D01*
Y50750D01*
Y55750D01*
Y61000D01*
D02*
G37*
%LPD*%
G36*
X129250Y31250D02*
X100750D01*
Y60750D01*
X129250D01*
Y31250D01*
D02*
G37*
D34*
X184000Y137000D02*
D03*
X200000D02*
D03*
X166000Y67000D02*
D03*
X150000D02*
D03*
D35*
X85170Y109690D02*
D03*
Y93690D02*
D03*
X102950Y109690D02*
D03*
Y93690D02*
D03*
X78000Y24000D02*
D03*
Y40000D02*
D03*
X166000Y52000D02*
D03*
Y36000D02*
D03*
X94000Y158000D02*
D03*
Y142000D02*
D03*
D38*
X237300Y235000D02*
D03*
Y32000D02*
D03*
X26700D02*
D03*
Y235000D02*
D03*
X251000Y133900D02*
D03*
Y146600D02*
D03*
Y159300D02*
D03*
X126983Y183280D02*
D03*
X151969Y205280D02*
D03*
X120000Y223000D02*
D03*
X143000Y164000D02*
D03*
X95000Y88000D02*
D03*
X40000Y119000D02*
D03*
X44000Y98000D02*
D03*
X101000Y128000D02*
D03*
X213000Y70000D02*
D03*
X14000Y38000D02*
D03*
X34000Y145000D02*
D03*
X146000Y25000D02*
D03*
D39*
X250000Y235000D02*
D03*
Y32000D02*
D03*
X14000D02*
D03*
Y235000D02*
D03*
D40*
X251000Y172000D02*
D03*
D41*
X185600Y23000D02*
D03*
D42*
X211000D02*
D03*
D43*
X206430Y193670D02*
D03*
Y212670D02*
D03*
X229430Y203170D02*
D03*
X206430Y156840D02*
D03*
Y175840D02*
D03*
X229430Y166340D02*
D03*
X59250Y177760D02*
D03*
Y158760D02*
D03*
X36250Y168260D02*
D03*
X59250Y214590D02*
D03*
Y195590D02*
D03*
X36250Y205090D02*
D03*
D44*
X76960Y214090D02*
D03*
Y196090D02*
D03*
X187450Y194170D02*
D03*
Y212170D02*
D03*
Y157340D02*
D03*
Y175340D02*
D03*
X76960Y177260D02*
D03*
Y159260D02*
D03*
D45*
X168510Y194280D02*
D03*
X150510D02*
D03*
X168510Y158720D02*
D03*
X150510D02*
D03*
X94630Y175880D02*
D03*
X112630D02*
D03*
X95900Y213980D02*
D03*
X113900D02*
D03*
D46*
X171640Y118070D02*
D03*
Y99070D02*
D03*
X195640D02*
D03*
Y108570D02*
D03*
Y118070D02*
D03*
D47*
X136000Y124000D02*
D03*
Y93000D02*
D03*
M02*
