G04 Layer_Color=65535*
%FSLAX44Y44*%
%MOMM*%
G71*
G01*
G75*
%ADD31C,0.2000*%
%ADD32C,0.0127*%
%ADD33C,0.2540*%
D31*
X19000Y201500D02*
Y212500D01*
X228300Y226000D02*
Y244000D01*
Y226000D02*
X259000D01*
Y244000D01*
X228300D02*
X259000D01*
X228300Y23000D02*
Y41000D01*
Y23000D02*
X259000D01*
Y41000D01*
X228300D02*
X259000D01*
X35700Y23000D02*
Y41000D01*
X5000D02*
X35700D01*
X5000Y23000D02*
Y41000D01*
Y23000D02*
X35700D01*
Y226000D02*
Y244000D01*
X5000D02*
X35700D01*
X5000Y226000D02*
Y244000D01*
Y226000D02*
X35700D01*
X244000Y106500D02*
Y117500D01*
X242000Y124900D02*
X260000D01*
Y181000D01*
X242000D02*
X260000D01*
X242000Y124900D02*
Y181000D01*
X23000Y92500D02*
Y103500D01*
Y112500D02*
Y123500D01*
X24500Y167000D02*
X35500D01*
X7500D02*
X18500D01*
X172900Y10300D02*
X223700D01*
Y35700D01*
X172900D02*
X223700D01*
X172900Y10300D02*
Y35700D01*
D32*
X112520Y254239D02*
X159510D01*
X111631Y254366D02*
X160526D01*
X110996Y254493D02*
X161034D01*
X110488Y254620D02*
X161542D01*
X110107Y254747D02*
X161923D01*
X109726Y254874D02*
X162304D01*
X109345Y255001D02*
X162685D01*
X109091Y255128D02*
X162939D01*
X108837Y255255D02*
X163193D01*
X159764Y255382D02*
X163447D01*
X108583D02*
X132713D01*
X160653Y255509D02*
X163701D01*
X108329D02*
X132840D01*
X161288Y255636D02*
X163955D01*
X108075D02*
X133094D01*
X161669Y255763D02*
X164209D01*
X107821D02*
X133221D01*
X162050Y255890D02*
X164463D01*
X107567D02*
X133348D01*
X162431Y256017D02*
X164590D01*
X107440D02*
X133475D01*
X162685Y256144D02*
X164844D01*
X107186D02*
X133602D01*
X162939Y256271D02*
X164971D01*
X107059D02*
X133729D01*
X163193Y256398D02*
X165098D01*
X106805D02*
X133856D01*
X163447Y256525D02*
X165352D01*
X106678D02*
X133983D01*
X163701Y256652D02*
X165479D01*
X106551D02*
X134110D01*
X163955Y256779D02*
X165606D01*
X106424D02*
X134237D01*
X164082Y256906D02*
X165733D01*
X106297D02*
X134364D01*
X164336Y257033D02*
X165987D01*
X106043D02*
X134491D01*
X164463Y257160D02*
X166114D01*
X105916D02*
X134618D01*
X164590Y257287D02*
X166241D01*
X105789D02*
X134618D01*
X164844Y257414D02*
X166368D01*
X105662D02*
X134745D01*
X164971Y257541D02*
X166495D01*
X105535D02*
X134872D01*
X165098Y257668D02*
X166622D01*
X105408D02*
X134999D01*
X165225Y257795D02*
X166749D01*
X105281D02*
X135126D01*
X165352Y257922D02*
X166876D01*
X105154D02*
X135126D01*
X165606Y258049D02*
X167003D01*
X105027D02*
X135253D01*
X165733Y258176D02*
X167003D01*
X104900D02*
X135380D01*
X165860Y258303D02*
X167130D01*
X104900D02*
X135380D01*
X165987Y258430D02*
X167257D01*
X104773D02*
X135507D01*
X165987Y258557D02*
X167384D01*
X104646D02*
X135634D01*
X166114Y258684D02*
X167511D01*
X104519D02*
X135634D01*
X166241Y258811D02*
X167511D01*
X104519D02*
X135761D01*
X166368Y258938D02*
X167638D01*
X104392D02*
X135888D01*
X166495Y259065D02*
X167765D01*
X104265D02*
X135888D01*
X166622Y259192D02*
X167892D01*
X104138D02*
X136015D01*
X166622Y259319D02*
X167892D01*
X104138D02*
X136015D01*
X166749Y259446D02*
X168019D01*
X104011D02*
X136142D01*
X166876Y259573D02*
X168146D01*
X103884D02*
X136142D01*
X167003Y259700D02*
X168146D01*
X103884D02*
X136269D01*
X167003Y259827D02*
X168273D01*
X103757D02*
X136269D01*
X167130Y259954D02*
X168273D01*
X103757D02*
X136396D01*
X167257Y260081D02*
X168400D01*
X103630D02*
X136396D01*
X167257Y260208D02*
X168400D01*
X103503D02*
X136523D01*
X167384Y260335D02*
X168527D01*
X103503D02*
X136523D01*
X167384Y260462D02*
X168527D01*
X103376D02*
X136523D01*
X167511Y260589D02*
X168654D01*
X103376D02*
X136650D01*
X167511Y260716D02*
X168654D01*
X103249D02*
X136650D01*
X167638Y260843D02*
X168781D01*
X103249D02*
X136777D01*
X167638Y260970D02*
X168781D01*
X103249D02*
X136777D01*
X167765Y261097D02*
X168908D01*
X103122D02*
X136777D01*
X167765Y261224D02*
X168908D01*
X103122D02*
X136904D01*
X167892Y261351D02*
X169035D01*
X159764D02*
X159891D01*
X157351D02*
X159383D01*
X156843D02*
X157097D01*
X143000D02*
X146175D01*
X132967D02*
X136904D01*
X123823D02*
X129792D01*
X121537D02*
X121791D01*
X121283D02*
X121410D01*
X114679D02*
X121029D01*
X112520D02*
X112647D01*
X102995D02*
X112266D01*
X167892Y261478D02*
X169035D01*
X156589D02*
X159891D01*
X142746D02*
X146175D01*
X132967D02*
X136904D01*
X123823D02*
X129665D01*
X114933D02*
X121029D01*
X102995D02*
X112139D01*
X168019Y261605D02*
X169035D01*
X156589D02*
X159891D01*
X142746D02*
X146175D01*
X132967D02*
X137031D01*
X123950D02*
X129665D01*
X114933D02*
X121029D01*
X102995D02*
X112139D01*
X168019Y261732D02*
X169162D01*
X156589D02*
X159891D01*
X142746D02*
X146175D01*
X132967D02*
X137031D01*
X123950D02*
X129665D01*
X114933D02*
X120902D01*
X102868D02*
X112139D01*
X168019Y261859D02*
X169162D01*
X156589D02*
X159891D01*
X142746D02*
X146175D01*
X132967D02*
X137031D01*
X123950D02*
X129792D01*
X115060D02*
X120902D01*
X102868D02*
X112012D01*
X168146Y261986D02*
X169162D01*
X156589D02*
X159891D01*
X142746D02*
X146175D01*
X132967D02*
X137031D01*
X123950D02*
X129792D01*
X115060D02*
X120902D01*
X102741D02*
X112012D01*
X168146Y262113D02*
X169289D01*
X156589D02*
X159891D01*
X142746D02*
X146175D01*
X132967D02*
X137158D01*
X124077D02*
X129665D01*
X115060D02*
X120775D01*
X102741D02*
X112012D01*
X168146Y262240D02*
X169289D01*
X156589D02*
X159891D01*
X142746D02*
X146175D01*
X132967D02*
X137158D01*
X124077D02*
X129665D01*
X115187D02*
X120775D01*
X102741D02*
X112012D01*
X168273Y262367D02*
X169289D01*
X156589D02*
X159891D01*
X142746D02*
X146175D01*
X132967D02*
X137158D01*
X124077D02*
X129665D01*
X115187D02*
X120775D01*
X102741D02*
X111885D01*
X168273Y262494D02*
X169416D01*
X156589D02*
X159891D01*
X142746D02*
X146175D01*
X132967D02*
X137158D01*
X124077D02*
X129665D01*
X115187D02*
X120775D01*
X102614D02*
X111885D01*
X168273Y262621D02*
X169416D01*
X156589D02*
X159891D01*
X142746D02*
X146175D01*
X132967D02*
X137285D01*
X124204D02*
X129665D01*
X115187D02*
X120648D01*
X102614D02*
X111885D01*
X168400Y262748D02*
X169416D01*
X156589D02*
X159891D01*
X142746D02*
X146175D01*
X132967D02*
X137285D01*
X124204D02*
X129665D01*
X115314D02*
X120648D01*
X102614D02*
X111758D01*
X168400Y262875D02*
X169416D01*
X156589D02*
X159891D01*
X142746D02*
X146175D01*
X132967D02*
X137285D01*
X124204D02*
X129665D01*
X115314D02*
X120648D01*
X102487D02*
X111758D01*
X168400Y263002D02*
X169543D01*
X156589D02*
X159891D01*
X142746D02*
X146175D01*
X132967D02*
X137285D01*
X124331D02*
X129665D01*
X115314D02*
X120521D01*
X102487D02*
X111758D01*
X168400Y263129D02*
X169543D01*
X156589D02*
X159891D01*
X142746D02*
X146175D01*
X132967D02*
X137285D01*
X124331D02*
X129665D01*
X115441D02*
X120521D01*
X102487D02*
X111758D01*
X168527Y263256D02*
X169543D01*
X156589D02*
X159891D01*
X142746D02*
X146175D01*
X132967D02*
X137412D01*
X124331D02*
X129665D01*
X115441D02*
X120521D01*
X102487D02*
X111631D01*
X168527Y263383D02*
X169543D01*
X156589D02*
X159891D01*
X142746D02*
X146175D01*
X132967D02*
X137412D01*
X124331D02*
X129665D01*
X115441D02*
X120521D01*
X102487D02*
X111631D01*
X168527Y263510D02*
X169543D01*
X156589D02*
X159891D01*
X142746D02*
X146175D01*
X132967D02*
X137412D01*
X124458D02*
X129665D01*
X115441D02*
X120394D01*
X102360D02*
X111631D01*
X168527Y263637D02*
X169670D01*
X156589D02*
X159891D01*
X142746D02*
X146175D01*
X132967D02*
X137412D01*
X124458D02*
X129665D01*
X115568D02*
X120394D01*
X102360D02*
X111631D01*
X168527Y263764D02*
X169670D01*
X156589D02*
X159891D01*
X142746D02*
X146175D01*
X132967D02*
X137412D01*
X124458D02*
X129665D01*
X115568D02*
X120394D01*
X102360D02*
X111504D01*
X168654Y263891D02*
X169670D01*
X156589D02*
X159891D01*
X142746D02*
X146175D01*
X132967D02*
X137412D01*
X124458D02*
X129665D01*
X115568D02*
X120267D01*
X102360D02*
X111504D01*
X168654Y264018D02*
X169670D01*
X156589D02*
X159891D01*
X142746D02*
X146175D01*
X132967D02*
X137412D01*
X124585D02*
X129665D01*
X115695D02*
X120267D01*
X102360D02*
X111504D01*
X168654Y264145D02*
X169670D01*
X156589D02*
X159891D01*
X142746D02*
X146175D01*
X132967D02*
X137412D01*
X124585D02*
X129665D01*
X115695D02*
X120267D01*
X102360D02*
X111504D01*
X168654Y264272D02*
X169670D01*
X156589D02*
X159891D01*
X142746D02*
X146175D01*
X132967D02*
X137539D01*
X124585D02*
X129665D01*
X115695D02*
X120140D01*
X102360D02*
X111377D01*
X168654Y264399D02*
X169797D01*
X156589D02*
X159891D01*
X142746D02*
X146175D01*
X132967D02*
X137539D01*
X124585D02*
X129665D01*
X115695D02*
X120140D01*
X102233D02*
X111377D01*
X168654Y264526D02*
X169797D01*
X156589D02*
X159891D01*
X142746D02*
X146175D01*
X132967D02*
X137539D01*
X124712D02*
X129665D01*
X115822D02*
X120140D01*
X102233D02*
X111377D01*
X168654Y264653D02*
X169797D01*
X156589D02*
X159891D01*
X142746D02*
X146175D01*
X132967D02*
X137539D01*
X124712D02*
X129665D01*
X115822D02*
X120140D01*
X102233D02*
X111250D01*
X168654Y264780D02*
X169797D01*
X156589D02*
X159891D01*
X142746D02*
X146175D01*
X132967D02*
X137539D01*
X124712D02*
X129665D01*
X115822D02*
X120013D01*
X102233D02*
X111250D01*
X168654Y264907D02*
X169797D01*
X156589D02*
X159891D01*
X142746D02*
X146175D01*
X132967D02*
X137539D01*
X124712D02*
X129665D01*
X115949D02*
X120013D01*
X102233D02*
X111250D01*
X168654Y265034D02*
X169797D01*
X156589D02*
X159891D01*
X142746D02*
X146175D01*
X132967D02*
X137539D01*
X124839D02*
X129665D01*
X115949D02*
X120013D01*
X102233D02*
X111250D01*
X168654Y265161D02*
X169797D01*
X156589D02*
X159891D01*
X142746D02*
X146175D01*
X132967D02*
X137539D01*
X124839D02*
X129665D01*
X115949D02*
X119886D01*
X102233D02*
X111123D01*
X168654Y265288D02*
X169797D01*
X156589D02*
X159891D01*
X142746D02*
X146175D01*
X132967D02*
X137539D01*
X124839D02*
X129665D01*
X115949D02*
X119886D01*
X102233D02*
X111123D01*
X168654Y265415D02*
X169797D01*
X156589D02*
X159891D01*
X142746D02*
X146175D01*
X132967D02*
X137539D01*
X124966D02*
X129665D01*
X116076D02*
X119886D01*
X102233D02*
X111123D01*
X168654Y265542D02*
X169797D01*
X156589D02*
X159891D01*
X142746D02*
X146175D01*
X132967D02*
X137539D01*
X124966D02*
X129665D01*
X116076D02*
X119886D01*
X102233D02*
X111123D01*
X168654Y265669D02*
X169797D01*
X156589D02*
X159891D01*
X142746D02*
X146175D01*
X132967D02*
X137539D01*
X124966D02*
X129665D01*
X116076D02*
X119759D01*
X102233D02*
X110996D01*
X168654Y265796D02*
X169797D01*
X156589D02*
X159891D01*
X142746D02*
X146175D01*
X132967D02*
X137539D01*
X124966D02*
X129665D01*
X116203D02*
X119759D01*
X102233D02*
X110996D01*
X168654Y265923D02*
X169797D01*
X156589D02*
X159891D01*
X142746D02*
X146175D01*
X132967D02*
X137539D01*
X125093D02*
X129665D01*
X116203D02*
X119759D01*
X102233D02*
X110996D01*
X168654Y266050D02*
X169797D01*
X156589D02*
X159891D01*
X142746D02*
X146175D01*
X132967D02*
X137539D01*
X125093D02*
X129665D01*
X116203D02*
X119759D01*
X102233D02*
X110996D01*
X168654Y266177D02*
X169797D01*
X156589D02*
X159891D01*
X142746D02*
X146175D01*
X132967D02*
X137539D01*
X125093D02*
X129665D01*
X116203D02*
X119632D01*
X102233D02*
X110869D01*
X168654Y266304D02*
X169797D01*
X156589D02*
X159891D01*
X142746D02*
X146175D01*
X132967D02*
X137539D01*
X125093D02*
X129665D01*
X116330D02*
X119632D01*
X102233D02*
X110869D01*
X168654Y266431D02*
X169797D01*
X156589D02*
X159891D01*
X142746D02*
X146175D01*
X132967D02*
X137539D01*
X125220D02*
X129665D01*
X116330D02*
X119632D01*
X102233D02*
X110869D01*
X168654Y266558D02*
X169797D01*
X156589D02*
X159891D01*
X142746D02*
X146175D01*
X132967D02*
X137539D01*
X125220D02*
X129665D01*
X116330D02*
X119505D01*
X102233D02*
X110742D01*
X168654Y266685D02*
X169797D01*
X156589D02*
X159891D01*
X142746D02*
X146175D01*
X132967D02*
X137539D01*
X125220D02*
X129665D01*
X116457D02*
X119505D01*
X102233D02*
X110742D01*
X168654Y266812D02*
X169797D01*
X156589D02*
X159891D01*
X142746D02*
X146175D01*
X132967D02*
X137539D01*
X125220D02*
X129665D01*
X122299D02*
X122426D01*
X116457D02*
X119505D01*
X102233D02*
X110742D01*
X168654Y266939D02*
X169797D01*
X156589D02*
X159891D01*
X142746D02*
X146175D01*
X132967D02*
X137539D01*
X125347D02*
X129665D01*
X122299D02*
X122426D01*
X116457D02*
X119378D01*
X102233D02*
X110742D01*
X168654Y267066D02*
X169797D01*
X156589D02*
X159891D01*
X142746D02*
X146175D01*
X132967D02*
X137539D01*
X125347D02*
X129665D01*
X122299D02*
X122553D01*
X116584D02*
X119378D01*
X102233D02*
X110615D01*
X168654Y267193D02*
X169797D01*
X156589D02*
X159891D01*
X142746D02*
X146175D01*
X132967D02*
X137539D01*
X125347D02*
X129665D01*
X122299D02*
X122553D01*
X116584D02*
X119378D01*
X113663D02*
X113790D01*
X102233D02*
X110615D01*
X168654Y267320D02*
X169797D01*
X156589D02*
X159891D01*
X142746D02*
X146175D01*
X132967D02*
X137539D01*
X125347D02*
X129665D01*
X122172D02*
X122553D01*
X116584D02*
X119378D01*
X113536D02*
X113790D01*
X102233D02*
X110615D01*
X168654Y267447D02*
X169797D01*
X156589D02*
X159891D01*
X142746D02*
X153795D01*
X132967D02*
X137539D01*
X125474D02*
X129665D01*
X122172D02*
X122553D01*
X116584D02*
X119251D01*
X113536D02*
X113790D01*
X102233D02*
X110615D01*
X168654Y267574D02*
X169797D01*
X156589D02*
X159891D01*
X142746D02*
X153795D01*
X132967D02*
X137539D01*
X125474D02*
X129665D01*
X122172D02*
X122680D01*
X116711D02*
X119251D01*
X113536D02*
X113917D01*
X102233D02*
X110488D01*
X168654Y267701D02*
X169797D01*
X156589D02*
X159891D01*
X142746D02*
X153795D01*
X132967D02*
X137539D01*
X125474D02*
X129665D01*
X122045D02*
X122680D01*
X116711D02*
X119251D01*
X113536D02*
X113917D01*
X102233D02*
X110488D01*
X168654Y267828D02*
X169797D01*
X156589D02*
X159891D01*
X142746D02*
X153795D01*
X132967D02*
X137539D01*
X125601D02*
X129665D01*
X122045D02*
X122680D01*
X116711D02*
X119124D01*
X113409D02*
X113917D01*
X102233D02*
X110488D01*
X168654Y267955D02*
X169797D01*
X156589D02*
X159891D01*
X142746D02*
X153795D01*
X132967D02*
X137539D01*
X125601D02*
X129665D01*
X122045D02*
X122680D01*
X116838D02*
X119124D01*
X113409D02*
X113917D01*
X102233D02*
X110361D01*
X168654Y268082D02*
X169797D01*
X156589D02*
X159891D01*
X142746D02*
X153795D01*
X132967D02*
X137539D01*
X125601D02*
X129665D01*
X122045D02*
X122680D01*
X116838D02*
X119124D01*
X113409D02*
X114044D01*
X102233D02*
X110361D01*
X168654Y268209D02*
X169797D01*
X156589D02*
X159891D01*
X142746D02*
X153795D01*
X132967D02*
X137539D01*
X125601D02*
X129665D01*
X121918D02*
X122807D01*
X116838D02*
X119124D01*
X113409D02*
X114044D01*
X102233D02*
X110361D01*
X168654Y268336D02*
X169797D01*
X156589D02*
X159891D01*
X142746D02*
X153795D01*
X132967D02*
X137539D01*
X125728D02*
X129665D01*
X121918D02*
X122807D01*
X116838D02*
X118997D01*
X113409D02*
X114044D01*
X102233D02*
X110361D01*
X168654Y268463D02*
X169797D01*
X156589D02*
X159891D01*
X142746D02*
X153795D01*
X132967D02*
X137539D01*
X125728D02*
X129665D01*
X121918D02*
X122807D01*
X116965D02*
X118997D01*
X113282D02*
X114171D01*
X102233D02*
X110234D01*
X168654Y268590D02*
X169797D01*
X156589D02*
X159891D01*
X142746D02*
X153795D01*
X132967D02*
X137539D01*
X125728D02*
X129665D01*
X121918D02*
X122807D01*
X116965D02*
X118997D01*
X113282D02*
X114171D01*
X102233D02*
X110234D01*
X168654Y268717D02*
X169797D01*
X156589D02*
X159891D01*
X142746D02*
X153795D01*
X132967D02*
X137539D01*
X125728D02*
X129665D01*
X121791D02*
X122934D01*
X116965D02*
X118870D01*
X113282D02*
X114171D01*
X102233D02*
X110234D01*
X168654Y268844D02*
X169797D01*
X156589D02*
X159891D01*
X142746D02*
X153795D01*
X132967D02*
X137539D01*
X125855D02*
X129665D01*
X121791D02*
X122934D01*
X117092D02*
X118870D01*
X113282D02*
X114298D01*
X102233D02*
X110234D01*
X168654Y268971D02*
X169797D01*
X156589D02*
X159891D01*
X142746D02*
X153795D01*
X132967D02*
X137539D01*
X125855D02*
X129665D01*
X121791D02*
X122934D01*
X117092D02*
X118870D01*
X113155D02*
X114298D01*
X102233D02*
X110107D01*
X168654Y269098D02*
X169797D01*
X156589D02*
X159891D01*
X142746D02*
X153795D01*
X132967D02*
X137539D01*
X125855D02*
X129665D01*
X121664D02*
X122934D01*
X117092D02*
X118870D01*
X113155D02*
X114298D01*
X102233D02*
X110107D01*
X168654Y269225D02*
X169797D01*
X156589D02*
X159891D01*
X142746D02*
X153795D01*
X132967D02*
X137539D01*
X125855D02*
X129665D01*
X121664D02*
X123061D01*
X117092D02*
X118743D01*
X113155D02*
X114298D01*
X102233D02*
X110107D01*
X168654Y269352D02*
X169797D01*
X156589D02*
X159891D01*
X142746D02*
X153795D01*
X132967D02*
X137539D01*
X125982D02*
X129665D01*
X121664D02*
X123061D01*
X117219D02*
X118743D01*
X113155D02*
X114425D01*
X102233D02*
X110107D01*
X168654Y269479D02*
X169797D01*
X156589D02*
X159891D01*
X142746D02*
X153795D01*
X132967D02*
X137539D01*
X125982D02*
X129665D01*
X121537D02*
X123061D01*
X117219D02*
X118743D01*
X113155D02*
X114425D01*
X102233D02*
X109980D01*
X168654Y269606D02*
X169797D01*
X156589D02*
X159891D01*
X142746D02*
X153795D01*
X132967D02*
X137539D01*
X125982D02*
X129665D01*
X121537D02*
X123061D01*
X117219D02*
X118616D01*
X113028D02*
X114425D01*
X102233D02*
X109980D01*
X168654Y269733D02*
X169797D01*
X156589D02*
X159891D01*
X142746D02*
X153795D01*
X132967D02*
X137539D01*
X125982D02*
X129665D01*
X121537D02*
X123061D01*
X117346D02*
X118616D01*
X113028D02*
X114552D01*
X102233D02*
X109980D01*
X168654Y269860D02*
X169797D01*
X156589D02*
X159891D01*
X142746D02*
X153795D01*
X132967D02*
X137539D01*
X126109D02*
X129665D01*
X121537D02*
X123188D01*
X117346D02*
X118616D01*
X113028D02*
X114552D01*
X102233D02*
X109853D01*
X168654Y269987D02*
X169797D01*
X156589D02*
X159891D01*
X142746D02*
X153795D01*
X132967D02*
X137539D01*
X126109D02*
X129665D01*
X121410D02*
X123188D01*
X117346D02*
X118616D01*
X113028D02*
X114552D01*
X102233D02*
X109853D01*
X168654Y270114D02*
X169797D01*
X156589D02*
X159891D01*
X142746D02*
X153795D01*
X132967D02*
X137539D01*
X126109D02*
X129665D01*
X121410D02*
X123188D01*
X117346D02*
X118489D01*
X112901D02*
X114552D01*
X102233D02*
X109853D01*
X168654Y270241D02*
X169797D01*
X156589D02*
X159891D01*
X142746D02*
X153795D01*
X132967D02*
X137539D01*
X126236D02*
X129665D01*
X121410D02*
X123188D01*
X117473D02*
X118489D01*
X112901D02*
X114679D01*
X102233D02*
X109853D01*
X168654Y270368D02*
X169797D01*
X156589D02*
X159891D01*
X142746D02*
X153795D01*
X132967D02*
X137539D01*
X126236D02*
X129665D01*
X121283D02*
X123315D01*
X117473D02*
X118489D01*
X112901D02*
X114679D01*
X102233D02*
X109726D01*
X168654Y270495D02*
X169797D01*
X156589D02*
X159891D01*
X142746D02*
X153795D01*
X132967D02*
X137539D01*
X126236D02*
X129665D01*
X121283D02*
X123315D01*
X117473D02*
X118362D01*
X112901D02*
X114679D01*
X102233D02*
X109726D01*
X168654Y270622D02*
X169797D01*
X156589D02*
X159891D01*
X142746D02*
X146175D01*
X132967D02*
X137539D01*
X126236D02*
X129665D01*
X121283D02*
X123315D01*
X117600D02*
X118362D01*
X112901D02*
X114806D01*
X102233D02*
X109726D01*
X168654Y270749D02*
X169797D01*
X156589D02*
X159891D01*
X142746D02*
X146175D01*
X132967D02*
X137539D01*
X126363D02*
X129665D01*
X121283D02*
X123315D01*
X117600D02*
X118362D01*
X112774D02*
X114806D01*
X102233D02*
X109726D01*
X168654Y270876D02*
X169797D01*
X156589D02*
X159891D01*
X142746D02*
X146175D01*
X132967D02*
X137539D01*
X126363D02*
X129665D01*
X121156D02*
X123442D01*
X117600D02*
X118362D01*
X112774D02*
X114806D01*
X102233D02*
X109599D01*
X168654Y271003D02*
X169797D01*
X156589D02*
X159891D01*
X142746D02*
X146175D01*
X132967D02*
X137539D01*
X126363D02*
X129665D01*
X121156D02*
X123442D01*
X117600D02*
X118235D01*
X112774D02*
X114933D01*
X102233D02*
X109599D01*
X168654Y271130D02*
X169797D01*
X156589D02*
X159891D01*
X142746D02*
X146175D01*
X132967D02*
X137539D01*
X126363D02*
X129665D01*
X121156D02*
X123442D01*
X117727D02*
X118235D01*
X112774D02*
X114933D01*
X102233D02*
X109599D01*
X168654Y271257D02*
X169797D01*
X156589D02*
X159891D01*
X142746D02*
X146175D01*
X132967D02*
X137539D01*
X126490D02*
X129792D01*
X121029D02*
X123442D01*
X117727D02*
X118235D01*
X112647D02*
X114933D01*
X102233D02*
X109472D01*
X168654Y271384D02*
X169797D01*
X156589D02*
X159891D01*
X142746D02*
X146175D01*
X132967D02*
X137539D01*
X126490D02*
X129665D01*
X121029D02*
X123442D01*
X117727D02*
X118108D01*
X112647D02*
X114933D01*
X102233D02*
X109472D01*
X168654Y271511D02*
X169797D01*
X156589D02*
X159891D01*
X142746D02*
X146175D01*
X132967D02*
X137539D01*
X126490D02*
X129665D01*
X121029D02*
X123569D01*
X117854D02*
X118108D01*
X112647D02*
X115060D01*
X102233D02*
X109472D01*
X168654Y271638D02*
X169797D01*
X156589D02*
X159891D01*
X142746D02*
X146175D01*
X132967D02*
X137539D01*
X126490D02*
X129665D01*
X121029D02*
X123569D01*
X117854D02*
X118108D01*
X112647D02*
X115060D01*
X102233D02*
X109472D01*
X168654Y271765D02*
X169797D01*
X156589D02*
X159891D01*
X142746D02*
X146175D01*
X132967D02*
X137539D01*
X126617D02*
X129665D01*
X120902D02*
X123569D01*
X117854D02*
X118108D01*
X112647D02*
X115060D01*
X102233D02*
X109345D01*
X168654Y271892D02*
X169797D01*
X156589D02*
X159891D01*
X142746D02*
X146175D01*
X132967D02*
X137539D01*
X126617D02*
X129665D01*
X120902D02*
X123569D01*
X117854D02*
X117981D01*
X112520D02*
X115187D01*
X102233D02*
X109345D01*
X168654Y272019D02*
X169797D01*
X142746D02*
X146175D01*
X126617D02*
X137539D01*
X120902D02*
X123696D01*
X112520D02*
X115187D01*
X102233D02*
X109345D01*
X168654Y272146D02*
X169797D01*
X142746D02*
X146175D01*
X126744D02*
X137539D01*
X120902D02*
X123696D01*
X112520D02*
X115187D01*
X102233D02*
X109345D01*
X168654Y272273D02*
X169797D01*
X142746D02*
X146175D01*
X126744D02*
X137539D01*
X120775D02*
X123696D01*
X112520D02*
X115314D01*
X102233D02*
X109218D01*
X168654Y272400D02*
X169797D01*
X142746D02*
X146175D01*
X126744D02*
X137539D01*
X120775D02*
X123696D01*
X112393D02*
X115314D01*
X102233D02*
X109218D01*
X168654Y272527D02*
X169797D01*
X142746D02*
X146175D01*
X126744D02*
X137539D01*
X120775D02*
X123823D01*
X112393D02*
X115314D01*
X102233D02*
X109218D01*
X168654Y272654D02*
X169797D01*
X142746D02*
X146175D01*
X126871D02*
X137539D01*
X120648D02*
X123823D01*
X112393D02*
X115314D01*
X102233D02*
X109218D01*
X168654Y272781D02*
X169797D01*
X142746D02*
X146175D01*
X126871D02*
X137539D01*
X120648D02*
X123823D01*
X112393D02*
X115441D01*
X102233D02*
X109091D01*
X168654Y272908D02*
X169797D01*
X142746D02*
X146175D01*
X126871D02*
X137539D01*
X120648D02*
X123823D01*
X112266D02*
X115441D01*
X102233D02*
X109091D01*
X168654Y273035D02*
X169797D01*
X142746D02*
X146175D01*
X126871D02*
X137539D01*
X120648D02*
X123950D01*
X112266D02*
X115441D01*
X102233D02*
X109091D01*
X168654Y273162D02*
X169797D01*
X142746D02*
X146175D01*
X126998D02*
X137539D01*
X120521D02*
X123950D01*
X112266D02*
X115568D01*
X102233D02*
X108964D01*
X168654Y273289D02*
X169797D01*
X142746D02*
X146175D01*
X126998D02*
X137539D01*
X120521D02*
X123950D01*
X112266D02*
X115568D01*
X102233D02*
X108964D01*
X168654Y273416D02*
X169797D01*
X158113D02*
X158240D01*
X142746D02*
X146175D01*
X131316D02*
X137539D01*
X126998D02*
X131189D01*
X120521D02*
X123950D01*
X112266D02*
X115568D01*
X102233D02*
X108964D01*
X168654Y273543D02*
X169797D01*
X157605D02*
X159002D01*
X142746D02*
X146175D01*
X132078D02*
X137539D01*
X126998D02*
X130681D01*
X120394D02*
X123950D01*
X112139D02*
X115568D01*
X102233D02*
X108964D01*
X168654Y273670D02*
X169797D01*
X157224D02*
X159256D01*
X142746D02*
X146175D01*
X132332D02*
X137539D01*
X127125D02*
X130427D01*
X120394D02*
X124077D01*
X112139D02*
X115695D01*
X102233D02*
X108837D01*
X168654Y273797D02*
X169670D01*
X157097D02*
X159383D01*
X142746D02*
X154303D01*
X132586D02*
X137539D01*
X127125D02*
X130173D01*
X120394D02*
X124077D01*
X112139D02*
X115695D01*
X102360D02*
X108837D01*
X168654Y273924D02*
X169670D01*
X156970D02*
X159637D01*
X142746D02*
X154430D01*
X132713D02*
X137539D01*
X127125D02*
X130046D01*
X120394D02*
X124077D01*
X112139D02*
X115695D01*
X102360D02*
X108837D01*
X168654Y274051D02*
X169670D01*
X156843D02*
X159764D01*
X142746D02*
X154303D01*
X132840D02*
X137666D01*
X127125D02*
X129919D01*
X120267D02*
X124077D01*
X112012D02*
X115822D01*
X102360D02*
X108837D01*
X168654Y274178D02*
X169670D01*
X156716D02*
X159764D01*
X142746D02*
X154303D01*
X132840D02*
X137666D01*
X127252D02*
X129792D01*
X120267D02*
X124077D01*
X112012D02*
X115822D01*
X102360D02*
X108710D01*
X168527Y274305D02*
X169670D01*
X156589D02*
X159891D01*
X142746D02*
X154303D01*
X132967D02*
X137666D01*
X127252D02*
X129665D01*
X120267D02*
X124204D01*
X112012D02*
X115822D01*
X102360D02*
X108710D01*
X168527Y274432D02*
X169670D01*
X156589D02*
X160018D01*
X142746D02*
X154303D01*
X133094D02*
X137666D01*
X127252D02*
X129665D01*
X120140D02*
X124204D01*
X112012D02*
X115949D01*
X102360D02*
X108710D01*
X168527Y274559D02*
X169670D01*
X156462D02*
X160018D01*
X142746D02*
X154303D01*
X133094D02*
X137666D01*
X127379D02*
X129538D01*
X120140D02*
X124204D01*
X112012D02*
X115949D01*
X102360D02*
X108710D01*
X168527Y274686D02*
X169543D01*
X156462D02*
X160018D01*
X142746D02*
X154303D01*
X133221D02*
X137666D01*
X127379D02*
X129538D01*
X120140D02*
X124204D01*
X111885D02*
X115949D01*
X102487D02*
X108583D01*
X168527Y274813D02*
X169543D01*
X156462D02*
X160145D01*
X142746D02*
X154303D01*
X133221D02*
X137666D01*
X127379D02*
X129538D01*
X120140D02*
X124331D01*
X111885D02*
X115949D01*
X102487D02*
X108583D01*
X168400Y274940D02*
X169543D01*
X156335D02*
X160145D01*
X142746D02*
X154303D01*
X133221D02*
X137793D01*
X127379D02*
X129538D01*
X120013D02*
X124331D01*
X111885D02*
X116076D01*
X102487D02*
X108583D01*
X168400Y275067D02*
X169543D01*
X156335D02*
X160145D01*
X142746D02*
X154303D01*
X133221D02*
X137793D01*
X127506D02*
X129411D01*
X120013D02*
X124331D01*
X111885D02*
X116076D01*
X102487D02*
X108456D01*
X168400Y275194D02*
X169543D01*
X156335D02*
X160145D01*
X142746D02*
X154303D01*
X133221D02*
X137793D01*
X127506D02*
X129411D01*
X120013D02*
X124331D01*
X111758D02*
X116076D01*
X102487D02*
X108456D01*
X168400Y275321D02*
X169416D01*
X156335D02*
X160145D01*
X142746D02*
X154303D01*
X133348D02*
X137793D01*
X127506D02*
X129411D01*
X119886D02*
X124458D01*
X111758D02*
X116203D01*
X102614D02*
X108456D01*
X168273Y275448D02*
X169416D01*
X156335D02*
X160145D01*
X142746D02*
X154303D01*
X133221D02*
X137920D01*
X127506D02*
X129411D01*
X119886D02*
X124458D01*
X111758D02*
X116203D01*
X102614D02*
X108456D01*
X168273Y275575D02*
X169416D01*
X156335D02*
X160145D01*
X142746D02*
X154303D01*
X133221D02*
X137920D01*
X127633D02*
X129411D01*
X119886D02*
X124458D01*
X111758D02*
X116203D01*
X102614D02*
X108329D01*
X168273Y275702D02*
X169289D01*
X156335D02*
X160145D01*
X142746D02*
X154303D01*
X133221D02*
X137920D01*
X127633D02*
X129411D01*
X119886D02*
X124458D01*
X111758D02*
X116203D01*
X102614D02*
X108329D01*
X168273Y275829D02*
X169289D01*
X156462D02*
X160145D01*
X142746D02*
X154303D01*
X133221D02*
X137920D01*
X127633D02*
X129538D01*
X119759D02*
X124585D01*
X111631D02*
X116330D01*
X102741D02*
X108329D01*
X168146Y275956D02*
X169289D01*
X156462D02*
X160145D01*
X142746D02*
X154303D01*
X133221D02*
X138047D01*
X127633D02*
X129538D01*
X119759D02*
X124585D01*
X111631D02*
X116330D01*
X102741D02*
X108329D01*
X168146Y276083D02*
X169289D01*
X156462D02*
X160018D01*
X142746D02*
X154303D01*
X133094D02*
X138047D01*
X127760D02*
X129538D01*
X119759D02*
X124585D01*
X111631D02*
X116330D01*
X102741D02*
X108202D01*
X168019Y276210D02*
X169162D01*
X156589D02*
X160018D01*
X142746D02*
X154303D01*
X133094D02*
X138047D01*
X127760D02*
X129665D01*
X119632D02*
X124585D01*
X111631D02*
X116457D01*
X102868D02*
X108202D01*
X168019Y276337D02*
X169162D01*
X156589D02*
X159891D01*
X142746D02*
X154303D01*
X132967D02*
X138174D01*
X127760D02*
X129665D01*
X119632D02*
X124585D01*
X111504D02*
X116457D01*
X102868D02*
X108202D01*
X168019Y276464D02*
X169035D01*
X156716D02*
X159764D01*
X142746D02*
X154303D01*
X132967D02*
X138174D01*
X127760D02*
X129792D01*
X119632D02*
X124712D01*
X111504D02*
X116457D01*
X102868D02*
X108202D01*
X167892Y276591D02*
X169035D01*
X156843D02*
X159764D01*
X142746D02*
X154430D01*
X132840D02*
X138301D01*
X127887D02*
X129919D01*
X119632D02*
X124712D01*
X111504D02*
X116584D01*
X102995D02*
X108075D01*
X167892Y276718D02*
X169035D01*
X156970D02*
X159637D01*
X142746D02*
X154303D01*
X132713D02*
X138301D01*
X127887D02*
X130046D01*
X119505D02*
X124712D01*
X111504D02*
X116584D01*
X102995D02*
X108075D01*
X167765Y276845D02*
X168908D01*
X157097D02*
X159510D01*
X132586D02*
X138301D01*
X127887D02*
X130173D01*
X127633D02*
X127760D01*
X119505D02*
X124839D01*
X119124D02*
X119378D01*
X118870D02*
X118997D01*
X111123D02*
X116584D01*
X110742D02*
X110996D01*
X108329D02*
X108456D01*
X103122D02*
X108202D01*
X167765Y276972D02*
X168908D01*
X157224D02*
X159256D01*
X132332D02*
X138428D01*
X103122D02*
X130300D01*
X167765Y277099D02*
X168781D01*
X157478D02*
X159002D01*
X132078D02*
X138428D01*
X103122D02*
X130554D01*
X167638Y277226D02*
X168781D01*
X157986D02*
X158494D01*
X131697D02*
X138555D01*
X103249D02*
X131062D01*
X167638Y277353D02*
X168781D01*
X103249D02*
X138555D01*
X167511Y277480D02*
X168654D01*
X103376D02*
X138682D01*
X167384Y277607D02*
X168654D01*
X103376D02*
X138682D01*
X167384Y277734D02*
X168527D01*
X103503D02*
X138809D01*
X167257Y277861D02*
X168527D01*
X103503D02*
X138809D01*
X167257Y277988D02*
X168400D01*
X103630D02*
X138936D01*
X167130Y278115D02*
X168273D01*
X103630D02*
X138936D01*
X167003Y278242D02*
X168273D01*
X103757D02*
X139063D01*
X167003Y278369D02*
X168146D01*
X103884D02*
X139190D01*
X166876Y278496D02*
X168146D01*
X103884D02*
X139190D01*
X166749Y278623D02*
X168019D01*
X104011D02*
X139317D01*
X166749Y278750D02*
X167892D01*
X104011D02*
X139444D01*
X166622Y278877D02*
X167892D01*
X104138D02*
X139444D01*
X166495Y279004D02*
X167765D01*
X104265D02*
X139571D01*
X169416Y279131D02*
X170686D01*
X166368D02*
X167638D01*
X104392D02*
X139698D01*
X169035Y279258D02*
X171067D01*
X166241D02*
X167638D01*
X104392D02*
X139825D01*
X168908Y279385D02*
X171194D01*
X166241D02*
X167511D01*
X104519D02*
X139952D01*
X170559Y279512D02*
X171321D01*
X168654D02*
X169543D01*
X166114D02*
X167384D01*
X104646D02*
X140079D01*
X170813Y279639D02*
X171448D01*
X168527D02*
X169289D01*
X165987D02*
X167257D01*
X104773D02*
X140079D01*
X170940Y279766D02*
X171575D01*
X168400D02*
X169035D01*
X165860D02*
X167130D01*
X104773D02*
X140206D01*
X171194Y279893D02*
X171702D01*
X168400D02*
X168908D01*
X165733D02*
X167130D01*
X104900D02*
X140333D01*
X171321Y280020D02*
X171829D01*
X170432D02*
X170940D01*
X169162D02*
X169543D01*
X168273D02*
X168781D01*
X165606D02*
X167003D01*
X105027D02*
X140460D01*
X171321Y280147D02*
X171829D01*
X170305D02*
X170940D01*
X169162D02*
X169543D01*
X168273D02*
X168654D01*
X165479D02*
X166876D01*
X105154D02*
X140587D01*
X171448Y280274D02*
X171956D01*
X170305D02*
X170813D01*
X169162D02*
X169543D01*
X168146D02*
X168654D01*
X165352D02*
X166749D01*
X105281D02*
X140714D01*
X171448Y280401D02*
X171956D01*
X170178D02*
X170686D01*
X169162D02*
X169543D01*
X168146D02*
X168527D01*
X165225D02*
X166622D01*
X105408D02*
X140841D01*
X171575Y280528D02*
X171956D01*
X170051D02*
X170686D01*
X169162D02*
X169543D01*
X168019D02*
X168527D01*
X164971D02*
X166495D01*
X105535D02*
X141095D01*
X171575Y280655D02*
X171956D01*
X170051D02*
X170559D01*
X169162D02*
X169543D01*
X168019D02*
X168527D01*
X164844D02*
X166368D01*
X105662D02*
X141222D01*
X171575Y280782D02*
X172083D01*
X169797D02*
X170432D01*
X169162D02*
X169543D01*
X168019D02*
X168527D01*
X164717D02*
X166241D01*
X105789D02*
X141349D01*
X171575Y280909D02*
X172083D01*
X169162D02*
X170432D01*
X168019D02*
X168400D01*
X164463D02*
X166114D01*
X105916D02*
X141476D01*
X171575Y281036D02*
X172083D01*
X169162D02*
X170686D01*
X168019D02*
X168527D01*
X164336D02*
X165987D01*
X106043D02*
X141730D01*
X171575Y281163D02*
X172083D01*
X169162D02*
X170813D01*
X168019D02*
X168527D01*
X164082D02*
X165860D01*
X106170D02*
X141857D01*
X171575Y281290D02*
X171956D01*
X170305D02*
X170813D01*
X169162D02*
X169543D01*
X168019D02*
X168527D01*
X163955D02*
X165733D01*
X106297D02*
X142111D01*
X171575Y281417D02*
X171956D01*
X170305D02*
X170813D01*
X169162D02*
X169543D01*
X168019D02*
X168527D01*
X163701D02*
X165479D01*
X106551D02*
X142238D01*
X171575Y281544D02*
X171956D01*
X170305D02*
X170813D01*
X169162D02*
X169543D01*
X168146D02*
X168527D01*
X163574D02*
X165352D01*
X106678D02*
X142492D01*
X171448Y281671D02*
X171956D01*
X170178D02*
X170813D01*
X169162D02*
X169543D01*
X168146D02*
X168654D01*
X163320D02*
X165225D01*
X106805D02*
X142746D01*
X171448Y281798D02*
X171829D01*
X169162D02*
X170813D01*
X168146D02*
X168654D01*
X163066D02*
X164971D01*
X107059D02*
X143000D01*
X171321Y281925D02*
X171829D01*
X169162D02*
X170686D01*
X168273D02*
X168781D01*
X162812D02*
X164844D01*
X107186D02*
X143254D01*
X171194Y282052D02*
X171702D01*
X169162D02*
X170305D01*
X168273D02*
X168781D01*
X162431D02*
X164590D01*
X107313D02*
X143508D01*
X171067Y282179D02*
X171702D01*
X168400D02*
X168908D01*
X162177D02*
X164463D01*
X107567D02*
X143889D01*
X170940Y282306D02*
X171575D01*
X168527D02*
X169162D01*
X161796D02*
X164209D01*
X107821D02*
X144143D01*
X170813Y282433D02*
X171448D01*
X168527D02*
X169289D01*
X161288D02*
X164082D01*
X107948D02*
X144651D01*
X170432Y282560D02*
X171321D01*
X168781D02*
X169670D01*
X160780D02*
X163828D01*
X108202D02*
X145032D01*
X168908Y282687D02*
X171194D01*
X160145D02*
X163574D01*
X108456D02*
X145794D01*
X169035Y282814D02*
X170940D01*
X108710D02*
X163320D01*
X169416Y282941D02*
X170686D01*
X108964D02*
X163066D01*
X109345Y283068D02*
X162685D01*
X109599Y283195D02*
X162431D01*
X109980Y283322D02*
X162050D01*
X110361Y283449D02*
X161669D01*
X110869Y283576D02*
X161161D01*
X111377Y283703D02*
X160653D01*
X112139Y283830D02*
X159891D01*
D33*
X51560Y227950D02*
Y304150D01*
Y61580D02*
Y67930D01*
Y61580D02*
X71880D01*
X193800D02*
X214120D01*
Y69200D01*
Y227950D02*
Y304150D01*
X51560D02*
X214120D01*
X43305Y328402D02*
X48383D01*
X45844D01*
Y313167D01*
X43305D01*
X48383D01*
X66158Y325863D02*
X63618Y328402D01*
X58540D01*
X56001Y325863D01*
Y315706D01*
X58540Y313167D01*
X63618D01*
X66158Y315706D01*
X71236Y313167D02*
X76314D01*
X73775D01*
Y328402D01*
X71236Y325863D01*
X74000Y201000D02*
Y216235D01*
X81617D01*
X84157Y213696D01*
Y208617D01*
X81617Y206078D01*
X74000D01*
X79078D02*
X84157Y201000D01*
X89235Y203539D02*
X91774Y201000D01*
X96853D01*
X99392Y203539D01*
Y213696D01*
X96853Y216235D01*
X91774D01*
X89235Y213696D01*
Y211157D01*
X91774Y208617D01*
X99392D01*
X234000Y204000D02*
Y219235D01*
X241618D01*
X244157Y216696D01*
Y211618D01*
X241618Y209078D01*
X234000D01*
X249235Y204000D02*
X254313D01*
X251774D01*
Y219235D01*
X249235Y216696D01*
X236000Y7000D02*
Y16997D01*
X240998D01*
X242665Y15331D01*
Y11998D01*
X240998Y10332D01*
X236000D01*
X252661Y7000D02*
X245997D01*
X252661Y13664D01*
Y15331D01*
X250995Y16997D01*
X247663D01*
X245997Y15331D01*
X44000Y23000D02*
Y38235D01*
X51617D01*
X54157Y35696D01*
Y30617D01*
X51617Y28078D01*
X44000D01*
X59235Y35696D02*
X61774Y38235D01*
X66853D01*
X69392Y35696D01*
Y33157D01*
X66853Y30617D01*
X64313D01*
X66853D01*
X69392Y28078D01*
Y25539D01*
X66853Y23000D01*
X61774D01*
X59235Y25539D01*
X63000Y230000D02*
Y245235D01*
X70617D01*
X73157Y242696D01*
Y237617D01*
X70617Y235078D01*
X63000D01*
X85853Y230000D02*
Y245235D01*
X78235Y237617D01*
X88392D01*
X233000Y184000D02*
Y199235D01*
X240618D01*
X243157Y196696D01*
Y191618D01*
X240618Y189078D01*
X233000D01*
X258392Y199235D02*
X248235D01*
Y191618D01*
X253313Y194157D01*
X255853D01*
X258392Y191618D01*
Y186539D01*
X255853Y184000D01*
X250774D01*
X248235Y186539D01*
X161000Y110000D02*
Y125235D01*
X168617D01*
X171157Y122696D01*
Y117618D01*
X168617Y115078D01*
X161000D01*
X166078D02*
X171157Y110000D01*
X176235D02*
X181313D01*
X178774D01*
Y125235D01*
X176235Y122696D01*
X188931Y110000D02*
X194009D01*
X191470D01*
Y125235D01*
X188931Y122696D01*
X71000Y105000D02*
Y120235D01*
X78618D01*
X81157Y117696D01*
Y112618D01*
X78618Y110078D01*
X71000D01*
X76078D02*
X81157Y105000D01*
X86235D02*
X91313D01*
X88774D01*
Y120235D01*
X86235Y117696D01*
X109088Y105000D02*
X98931D01*
X109088Y115157D01*
Y117696D01*
X106549Y120235D01*
X101470D01*
X98931Y117696D01*
X8000Y72000D02*
Y81997D01*
X12998D01*
X14664Y80331D01*
Y76998D01*
X12998Y75332D01*
X8000D01*
X11332D02*
X14664Y72000D01*
X17997D02*
X21329D01*
X19663D01*
Y81997D01*
X17997Y80331D01*
X26327D02*
X27994Y81997D01*
X31326D01*
X32992Y80331D01*
Y78664D01*
X31326Y76998D01*
X29660D01*
X31326D01*
X32992Y75332D01*
Y73666D01*
X31326Y72000D01*
X27994D01*
X26327Y73666D01*
X108000Y146000D02*
X92765D01*
Y153617D01*
X95304Y156157D01*
X100382D01*
X102922Y153617D01*
Y146000D01*
Y151078D02*
X108000Y156157D01*
Y161235D02*
Y166313D01*
Y163774D01*
X92765D01*
X95304Y161235D01*
X108000Y181549D02*
X92765D01*
X100382Y173931D01*
Y184088D01*
X87818Y146749D02*
X72583D01*
Y154367D01*
X75123Y156906D01*
X80201D01*
X82740Y154367D01*
Y146749D01*
Y151827D02*
X87818Y156906D01*
Y161984D02*
Y167062D01*
Y164523D01*
X72583D01*
X75123Y161984D01*
X72583Y184837D02*
Y174680D01*
X80201D01*
X77662Y179758D01*
Y182297D01*
X80201Y184837D01*
X85279D01*
X87818Y182297D01*
Y177219D01*
X85279Y174680D01*
X126000Y31235D02*
Y16000D01*
X133617D01*
X136157Y18539D01*
Y21078D01*
X133617Y23617D01*
X126000D01*
X133617D01*
X136157Y26157D01*
Y28696D01*
X133617Y31235D01*
X126000D01*
X141235Y16000D02*
Y26157D01*
X146313Y31235D01*
X151392Y26157D01*
Y16000D01*
Y23617D01*
X141235D01*
X156470Y31235D02*
X166627D01*
X161549D01*
Y16000D01*
M02*
