G04 Layer_Color=128*
%FSLAX44Y44*%
%MOMM*%
G71*
G01*
G75*
%ADD52C,0.0508*%
D52*
X234300Y235000D02*
X240300D01*
X237300Y232000D02*
Y238000D01*
X247000Y235000D02*
X253000D01*
X250000Y232000D02*
Y238000D01*
X234300Y32000D02*
X240300D01*
X237300Y29000D02*
Y35000D01*
X247000Y32000D02*
X253000D01*
X250000Y29000D02*
Y35000D01*
X23700Y32000D02*
X29700D01*
X26700Y29000D02*
Y35000D01*
X11000Y32000D02*
X17000D01*
X14000Y29000D02*
Y35000D01*
X23700Y235000D02*
X29700D01*
X26700Y232000D02*
Y238000D01*
X11000Y235000D02*
X17000D01*
X14000Y232000D02*
Y238000D01*
X248000Y133900D02*
X254000D01*
X251000Y130900D02*
Y136900D01*
X248000Y146600D02*
X254000D01*
X251000Y143600D02*
Y149600D01*
X248000Y159300D02*
X254000D01*
X251000Y156300D02*
Y162300D01*
X248000Y172000D02*
X254000D01*
X251000Y169000D02*
Y175000D01*
X181100Y23000D02*
X190100D01*
X185600Y18500D02*
Y27500D01*
X206500Y23000D02*
X215500D01*
X211000Y18500D02*
Y27500D01*
X124483Y183280D02*
X129483D01*
X126983Y180780D02*
Y185780D01*
X149469Y205280D02*
X154469D01*
X151969Y202780D02*
Y207780D01*
X117500Y223000D02*
X122500D01*
X120000Y220500D02*
Y225500D01*
X140500Y164000D02*
X145500D01*
X143000Y161500D02*
Y166500D01*
X92500Y88000D02*
X97500D01*
X95000Y85500D02*
Y90500D01*
X37500Y119000D02*
X42500D01*
X40000Y116500D02*
Y121500D01*
X41500Y98000D02*
X46500D01*
X44000Y95500D02*
Y100500D01*
X98500Y128000D02*
X103500D01*
X101000Y125500D02*
Y130500D01*
X210500Y70000D02*
X215500D01*
X213000Y67500D02*
Y72500D01*
X11500Y38000D02*
X16500D01*
X14000Y35500D02*
Y40500D01*
X31500Y145000D02*
X36500D01*
X34000Y142500D02*
Y147500D01*
X143500Y25000D02*
X148500D01*
X146000Y22500D02*
Y27500D01*
M02*
