G04 Layer_Physical_Order=1*
G04 Layer_Color=255*
%FSLAX44Y44*%
%MOMM*%
G71*
G01*
G75*
%ADD10R,1.0000X1.3000*%
%ADD11R,1.3000X1.0000*%
%ADD12R,2.5400X1.1430*%
%ADD13R,1.3970X2.5400*%
%ADD14C,0.5000*%
%ADD15C,0.3000*%
%ADD16C,1.0000*%
%ADD17R,1.0000X1.0000*%
%ADD18R,1.0000X1.0000*%
%ADD19C,1.5000*%
%ADD20R,1.5000X1.5000*%
G36*
X119950Y218000D02*
X119664Y217983D01*
X119367Y217927D01*
X119059Y217831D01*
X118739Y217695D01*
X118409Y217519D01*
X118066Y217304D01*
X117713Y217050D01*
X117348Y216756D01*
X116585Y216049D01*
X113049Y219585D01*
X113422Y219972D01*
X114050Y220713D01*
X114305Y221066D01*
X114520Y221409D01*
X114695Y221739D01*
X114831Y222059D01*
X114927Y222367D01*
X114983Y222664D01*
X115000Y222950D01*
X119950Y218000D01*
D02*
G37*
G36*
X223284Y222569D02*
X223433Y222144D01*
X223684Y221769D01*
X224034Y221444D01*
X224484Y221169D01*
X225033Y220944D01*
X225683Y220769D01*
X226434Y220644D01*
X227283Y220569D01*
X228234Y220544D01*
Y215544D01*
X227283Y215519D01*
X226434Y215444D01*
X225683Y215319D01*
X225033Y215144D01*
X224484Y214919D01*
X224034Y214644D01*
X223684Y214319D01*
X223433Y213944D01*
X223284Y213519D01*
X223234Y213044D01*
Y223044D01*
X223284Y222569D01*
D02*
G37*
G36*
X67328D02*
X67477Y222144D01*
X67728Y221769D01*
X68078Y221444D01*
X68527Y221169D01*
X69078Y220944D01*
X69728Y220769D01*
X70477Y220644D01*
X71328Y220569D01*
X72277Y220544D01*
Y215544D01*
X71328Y215519D01*
X70477Y215444D01*
X69728Y215319D01*
X69078Y215144D01*
X68527Y214919D01*
X68078Y214644D01*
X67728Y214319D01*
X67477Y213944D01*
X67328Y213519D01*
X67277Y213044D01*
Y223044D01*
X67328Y222569D01*
D02*
G37*
G36*
X35505Y211970D02*
X34579Y211009D01*
X33107Y209256D01*
X32561Y208464D01*
X32141Y207729D01*
X31848Y207050D01*
X31681Y206428D01*
X31640Y205861D01*
X31727Y205352D01*
X31939Y204898D01*
X26398Y213439D01*
X26715Y213090D01*
X27113Y212892D01*
X27593Y212846D01*
X28154Y212951D01*
X28797Y213208D01*
X29521Y213617D01*
X30326Y214177D01*
X31213Y214889D01*
X33232Y216768D01*
X35505Y211970D01*
D02*
G37*
G36*
X41939Y212360D02*
X41888Y212386D01*
X41739Y212410D01*
X41488Y212431D01*
X39488Y212487D01*
X36939Y212500D01*
Y217500D01*
X37892Y217525D01*
X38746Y217600D01*
X39500Y217725D01*
X40153Y217900D01*
X40706Y218125D01*
X41159Y218400D01*
X41512Y218725D01*
X41765Y219100D01*
X41917Y219525D01*
X41969Y220000D01*
X41939Y212360D01*
D02*
G37*
G36*
X232090Y242347D02*
X230881Y241419D01*
X229439Y239539D01*
X228532Y237349D01*
X228222Y235000D01*
X228532Y232651D01*
X229439Y230461D01*
X230881Y228581D01*
X232761Y227139D01*
X234951Y226232D01*
X237300Y225922D01*
X239650Y226232D01*
X240269Y226488D01*
X241000Y226000D01*
Y226000D01*
X259000D01*
X259617Y224985D01*
Y211674D01*
X258347Y211591D01*
X258333Y211697D01*
X257678Y213278D01*
X256636Y214636D01*
X248592Y222680D01*
X247234Y223722D01*
X245653Y224377D01*
X243956Y224600D01*
X227264D01*
Y227759D01*
X193864D01*
Y208329D01*
X193864D01*
Y207947D01*
X193864D01*
Y188897D01*
X193864Y187627D01*
X193864Y187247D01*
Y184468D01*
X169804D01*
X158525Y195747D01*
Y199040D01*
X159830Y200741D01*
X160737Y202931D01*
X161046Y205280D01*
X160737Y207629D01*
X159830Y209819D01*
X158388Y211699D01*
X156508Y213141D01*
X154318Y214048D01*
X151969Y214358D01*
X149619Y214048D01*
X147430Y213141D01*
X145550Y211699D01*
X144107Y209819D01*
X143200Y207629D01*
X142891Y205280D01*
X143200Y202931D01*
X144107Y200741D01*
X145413Y199040D01*
Y193031D01*
X145636Y191334D01*
X146291Y189753D01*
X147333Y188396D01*
X162452Y173276D01*
X163810Y172234D01*
X165391Y171579D01*
X167088Y171356D01*
X192966D01*
X193864Y170458D01*
X193864Y168197D01*
X193864Y166927D01*
Y164656D01*
X151991D01*
X151768Y166350D01*
X150862Y168539D01*
X149419Y170419D01*
X147539Y171861D01*
X145350Y172768D01*
X143000Y173078D01*
X140651Y172768D01*
X138461Y171861D01*
X136581Y170419D01*
X135139Y168539D01*
X134809Y167743D01*
X133539Y167996D01*
Y177040D01*
X134844Y178741D01*
X135751Y180931D01*
X136060Y183280D01*
X135751Y185629D01*
X134844Y187819D01*
X133402Y189699D01*
X131522Y191141D01*
X129332Y192048D01*
X126983Y192358D01*
X124633Y192048D01*
X122444Y191141D01*
X120564Y189699D01*
X119121Y187819D01*
X118215Y185629D01*
X117905Y183280D01*
X118215Y180931D01*
X119121Y178741D01*
X120427Y177040D01*
Y144017D01*
X120650Y142320D01*
X121305Y140739D01*
X122347Y139381D01*
X168208Y93520D01*
X169566Y92478D01*
X171147Y91823D01*
X172844Y91600D01*
X194118D01*
Y88441D01*
X194118D01*
Y87805D01*
X194118D01*
Y75275D01*
X193609Y74216D01*
X192848Y74216D01*
X71563D01*
Y40816D01*
X193609D01*
Y67316D01*
X194118Y68375D01*
X194879Y68375D01*
X204136D01*
X204232Y67650D01*
X205139Y65461D01*
X206581Y63581D01*
X208461Y62139D01*
X210651Y61232D01*
X213000Y60922D01*
X215350Y61232D01*
X217539Y62139D01*
X219419Y63581D01*
X220081Y64444D01*
X232000D01*
X233697Y64667D01*
X235278Y65322D01*
X236636Y66364D01*
X242891Y72619D01*
X243791Y72824D01*
X244269Y72845D01*
X244723Y72538D01*
X245167Y72218D01*
X245217Y72207D01*
X245259Y72178D01*
X245796Y72069D01*
X246329Y71943D01*
X246379Y71951D01*
X246429Y71941D01*
X246966Y72046D01*
X247507Y72134D01*
X247550Y72160D01*
X247600Y72170D01*
X248056Y72473D01*
X248522Y72761D01*
X248552Y72802D01*
X248594Y72830D01*
X248901Y73284D01*
X249122Y73592D01*
X249697Y73667D01*
X251278Y74322D01*
X252636Y75364D01*
X256636Y79364D01*
X257678Y80722D01*
X258333Y82303D01*
X258347Y82409D01*
X259617Y82326D01*
Y42015D01*
X259000Y41000D01*
X258347Y41000D01*
X241000D01*
Y41000D01*
X240269Y40512D01*
X239650Y40768D01*
X237300Y41078D01*
X234951Y40768D01*
X232761Y39861D01*
X230881Y38419D01*
X229439Y36539D01*
X228532Y34350D01*
X228222Y32000D01*
X228532Y29650D01*
X229439Y27461D01*
X230881Y25581D01*
X232761Y24139D01*
X234951Y23232D01*
X237300Y22922D01*
X239650Y23232D01*
X240269Y23488D01*
X241000Y23000D01*
Y23000D01*
X258347D01*
X259000Y23000D01*
X259617Y21985D01*
Y5383D01*
X5383D01*
Y23000D01*
X23000D01*
Y23000D01*
X23731Y23488D01*
X24351Y23232D01*
X26700Y22922D01*
X29049Y23232D01*
X31239Y24139D01*
X33119Y25581D01*
X34561Y27461D01*
X35468Y29650D01*
X35778Y32000D01*
X35468Y34350D01*
X34561Y36539D01*
X33119Y38419D01*
X31239Y39861D01*
X29049Y40768D01*
X26700Y41078D01*
X24351Y40768D01*
X24139Y40681D01*
X23000Y41000D01*
X22123Y41907D01*
X21861Y42539D01*
X20419Y44419D01*
X18539Y45862D01*
X16350Y46768D01*
X16134Y46797D01*
X11388Y51543D01*
Y88960D01*
X13730D01*
Y98000D01*
X16270D01*
Y88960D01*
X22000D01*
Y87500D01*
X37791D01*
X38912Y87060D01*
X39368Y86599D01*
X39368Y86333D01*
Y81046D01*
X39504Y81069D01*
X40158Y81244D01*
X40711Y81469D01*
X41164Y81744D01*
X41516Y82069D01*
X41768Y82444D01*
X41919Y82869D01*
X41969Y83344D01*
Y79614D01*
X53338D01*
Y86599D01*
X41577D01*
X40608Y86979D01*
X40084Y87535D01*
X40091Y87617D01*
X40116Y87649D01*
X40928Y88695D01*
X71308D01*
Y108125D01*
X71308D01*
Y108507D01*
X71308D01*
Y127049D01*
X71308Y127937D01*
X71308D01*
Y128319D01*
X71308D01*
Y131478D01*
X73306D01*
X75003Y131701D01*
X76584Y132356D01*
X77942Y133398D01*
X94636Y150092D01*
X95678Y151450D01*
X96333Y153031D01*
X96556Y154728D01*
Y190284D01*
X120224Y213952D01*
X122350Y214232D01*
X124539Y215138D01*
X126419Y216581D01*
X127861Y218461D01*
X128768Y220651D01*
X129078Y223000D01*
X128768Y225350D01*
X127861Y227539D01*
X126419Y229419D01*
X124539Y230861D01*
X122350Y231768D01*
X120000Y232078D01*
X117650Y231768D01*
X115461Y230861D01*
X113581Y229419D01*
X112139Y227539D01*
X111232Y225350D01*
X110952Y223223D01*
X87729Y200001D01*
X86556Y200487D01*
Y215000D01*
X86333Y216697D01*
X85678Y218278D01*
X84636Y219636D01*
X81592Y222680D01*
X80234Y223722D01*
X78653Y224377D01*
X76956Y224600D01*
X71308D01*
Y227759D01*
X37908D01*
Y221556D01*
X35000D01*
X33303Y221333D01*
X31722Y220678D01*
X30364Y219636D01*
X28228Y217500D01*
X18000D01*
Y216040D01*
X16748D01*
X16739Y216027D01*
X16535Y215685D01*
X16362Y215336D01*
X16221Y214978D01*
X16111Y214613D01*
X16032Y214240D01*
X15985Y213858D01*
X15970Y213470D01*
X12270D01*
Y207000D01*
Y197960D01*
X18000D01*
Y196500D01*
X32569D01*
X33055Y195327D01*
X25364Y187636D01*
X24322Y186278D01*
X23667Y184697D01*
X23576Y184000D01*
X19500D01*
Y184000D01*
X5383D01*
Y197960D01*
X9730D01*
Y207000D01*
Y213470D01*
X6030D01*
X6255Y213522D01*
X6568Y213682D01*
X6969Y213947D01*
X7457Y214318D01*
X8699Y215379D01*
X9388Y216040D01*
X5383D01*
Y226000D01*
X23000D01*
Y226000D01*
X23731Y226488D01*
X24351Y226232D01*
X26700Y225922D01*
X29049Y226232D01*
X31239Y227139D01*
X33119Y228581D01*
X34561Y230461D01*
X35468Y232651D01*
X35778Y235000D01*
X35468Y237349D01*
X34561Y239539D01*
X33119Y241419D01*
X31910Y242347D01*
X32341Y243617D01*
X231659D01*
X232090Y242347D01*
D02*
G37*
G36*
X155279Y201495D02*
X155109Y201245D01*
X154959Y200959D01*
X154829Y200637D01*
X154719Y200279D01*
X154629Y199885D01*
X154559Y199455D01*
X154509Y198990D01*
X154469Y197950D01*
X149469D01*
X149459Y198488D01*
X149379Y199455D01*
X149309Y199885D01*
X149219Y200279D01*
X149109Y200637D01*
X148979Y200959D01*
X148829Y201245D01*
X148659Y201495D01*
X148469Y201709D01*
X155469D01*
X155279Y201495D01*
D02*
G37*
G36*
X223279Y202757D02*
X223415Y202332D01*
X223642Y201957D01*
X223959Y201632D01*
X224367Y201357D01*
X224866Y201132D01*
X225455Y200957D01*
X226136Y200832D01*
X226907Y200757D01*
X227768Y200732D01*
Y195732D01*
X226907Y195707D01*
X226136Y195632D01*
X225455Y195507D01*
X224866Y195332D01*
X224367Y195107D01*
X223959Y194832D01*
X223642Y194507D01*
X223415Y194132D01*
X223279Y193707D01*
X223234Y193232D01*
Y203232D01*
X223279Y202757D01*
D02*
G37*
G36*
X46618Y192578D02*
X46340Y192965D01*
X45965Y193187D01*
X45496Y193243D01*
X44932Y193134D01*
X44272Y192860D01*
X43517Y192421D01*
X42668Y191817D01*
X41723Y191047D01*
X39548Y189012D01*
X38403Y194939D01*
X39289Y195859D01*
X40708Y197559D01*
X41241Y198337D01*
X41656Y199068D01*
X41954Y199751D01*
X42134Y200387D01*
X42197Y200975D01*
X42142Y201516D01*
X41969Y202010D01*
X46618Y192578D01*
D02*
G37*
G36*
X245444Y207284D02*
Y181000D01*
X242000D01*
X241556Y182086D01*
Y191000D01*
X241333Y192697D01*
X240678Y194278D01*
X239636Y195636D01*
X232404Y202868D01*
X231046Y203910D01*
X229465Y204565D01*
X227768Y204788D01*
X227264D01*
Y207947D01*
X227264D01*
Y208329D01*
X227264D01*
Y211488D01*
X241240D01*
X245444Y207284D01*
D02*
G37*
G36*
X32525Y182424D02*
X32600Y181909D01*
X32725Y181455D01*
X32900Y181061D01*
X33125Y180727D01*
X33400Y180454D01*
X33725Y180242D01*
X34100Y180091D01*
X34525Y180000D01*
X35000Y179970D01*
X25000D01*
X25475Y180000D01*
X25900Y180091D01*
X26275Y180242D01*
X26600Y180454D01*
X26875Y180727D01*
X27100Y181061D01*
X27275Y181455D01*
X27400Y181909D01*
X27475Y182424D01*
X27500Y183000D01*
X32500D01*
X32525Y182424D01*
D02*
G37*
G36*
X23530Y177524D02*
X24469Y177500D01*
Y172500D01*
X23530Y172476D01*
Y170030D01*
X23481Y170500D01*
X23331Y170919D01*
X23080Y171290D01*
X22731Y171611D01*
X22280Y171883D01*
X21730Y172105D01*
X21500Y172166D01*
X21270Y172105D01*
X20719Y171883D01*
X20269Y171611D01*
X19920Y171290D01*
X19670Y170919D01*
X19519Y170500D01*
X19469Y170030D01*
Y172476D01*
X18530Y172500D01*
Y177500D01*
X19469Y177524D01*
Y179970D01*
X19519Y179500D01*
X19670Y179081D01*
X19920Y178710D01*
X20269Y178389D01*
X20719Y178117D01*
X21270Y177895D01*
X21500Y177834D01*
X21730Y177895D01*
X22280Y178117D01*
X22731Y178389D01*
X23080Y178710D01*
X23331Y179081D01*
X23481Y179500D01*
X23530Y179970D01*
Y177524D01*
D02*
G37*
G36*
X254515Y181019D02*
X254632Y179419D01*
X254735Y178769D01*
X254867Y178220D01*
X255029Y177770D01*
X255220Y177419D01*
X255441Y177169D01*
X255690Y177020D01*
X255970Y176970D01*
X247000Y176939D01*
X247475Y176991D01*
X247900Y177143D01*
X248275Y177395D01*
X248600Y177748D01*
X248875Y178201D01*
X249100Y178754D01*
X249275Y179408D01*
X249400Y180161D01*
X249475Y181015D01*
X249500Y181970D01*
X254500D01*
X254515Y181019D01*
D02*
G37*
G36*
X130293Y179495D02*
X130123Y179245D01*
X129973Y178959D01*
X129843Y178637D01*
X129733Y178279D01*
X129643Y177885D01*
X129573Y177455D01*
X129523Y176989D01*
X129483Y175950D01*
X124483D01*
X124473Y176488D01*
X124393Y177455D01*
X124323Y177885D01*
X124233Y178279D01*
X124123Y178637D01*
X123993Y178959D01*
X123843Y179245D01*
X123673Y179495D01*
X123483Y179709D01*
X130483D01*
X130293Y179495D01*
D02*
G37*
G36*
X67328Y182691D02*
X67477Y182266D01*
X67728Y181891D01*
X68078Y181566D01*
X68527Y181291D01*
X69078Y181066D01*
X69728Y180891D01*
X70477Y180766D01*
X71328Y180691D01*
X72277Y180666D01*
Y175666D01*
X71328Y175641D01*
X70477Y175566D01*
X69728Y175441D01*
X69078Y175266D01*
X68527Y175041D01*
X68078Y174766D01*
X67728Y174441D01*
X67477Y174066D01*
X67328Y173641D01*
X67277Y173166D01*
Y183166D01*
X67328Y182691D01*
D02*
G37*
G36*
X197925Y172912D02*
X197875Y173387D01*
X197724Y173812D01*
X197472Y174187D01*
X197120Y174512D01*
X196667Y174787D01*
X196114Y175012D01*
X195460Y175187D01*
X194706Y175312D01*
X193850Y175387D01*
X192894Y175412D01*
Y180412D01*
X193850Y180437D01*
X194706Y180512D01*
X195460Y180637D01*
X196114Y180812D01*
X196667Y181037D01*
X197120Y181312D01*
X197472Y181637D01*
X197724Y182012D01*
X197875Y182437D01*
X197925Y182912D01*
Y172912D01*
D02*
G37*
G36*
X148017Y163664D02*
X148073Y163367D01*
X148169Y163059D01*
X148305Y162739D01*
X148481Y162409D01*
X148695Y162066D01*
X148950Y161713D01*
X149244Y161348D01*
X149951Y160585D01*
X146416Y157049D01*
X146028Y157422D01*
X145287Y158050D01*
X144934Y158305D01*
X144592Y158519D01*
X144261Y158695D01*
X143941Y158830D01*
X143633Y158927D01*
X143336Y158983D01*
X143050Y159000D01*
X148000Y163950D01*
X148017Y163664D01*
D02*
G37*
G36*
X248201Y155157D02*
X247992Y155279D01*
X247746Y155388D01*
X247462Y155485D01*
X247141Y155568D01*
X246782Y155639D01*
X245953Y155742D01*
X245482Y155774D01*
X244429Y155800D01*
X243230Y160800D01*
X243767Y160812D01*
X244722Y160909D01*
X245139Y160994D01*
X245516Y161104D01*
X245853Y161237D01*
X246150Y161395D01*
X246407Y161578D01*
X246624Y161784D01*
X246801Y162015D01*
X248201Y155157D01*
D02*
G37*
G36*
X197925Y153100D02*
X197875Y153575D01*
X197724Y154000D01*
X197472Y154375D01*
X197120Y154700D01*
X196667Y154975D01*
X196114Y155200D01*
X195460Y155375D01*
X194706Y155500D01*
X193850Y155575D01*
X192894Y155600D01*
Y160600D01*
X193850Y160625D01*
X194706Y160700D01*
X195460Y160825D01*
X196114Y161000D01*
X196667Y161225D01*
X197120Y161500D01*
X197472Y161825D01*
X197724Y162200D01*
X197875Y162625D01*
X197925Y163100D01*
Y153100D01*
D02*
G37*
G36*
X15715Y154001D02*
X15460Y153911D01*
X15235Y153760D01*
X15040Y153551D01*
X14875Y153280D01*
X14740Y152950D01*
X14635Y152561D01*
X14560Y152111D01*
X14515Y151601D01*
X14500Y151031D01*
X11500D01*
X11485Y151601D01*
X11440Y152111D01*
X11365Y152561D01*
X11260Y152950D01*
X11125Y153280D01*
X10960Y153551D01*
X10765Y153760D01*
X10540Y153911D01*
X10285Y154001D01*
X10000Y154031D01*
X16000D01*
X15715Y154001D01*
D02*
G37*
G36*
X83444Y175513D02*
Y157444D01*
X73040Y147040D01*
X71557Y147316D01*
X71308Y147749D01*
Y148639D01*
X71308D01*
Y168069D01*
X71308D01*
Y168451D01*
X71308D01*
Y171610D01*
X75166D01*
X76863Y171833D01*
X78444Y172488D01*
X79802Y173530D01*
X82271Y175999D01*
X83444Y175513D01*
D02*
G37*
G36*
X34525Y154011D02*
X34100Y153860D01*
X33725Y153608D01*
X33400Y153256D01*
X33125Y152803D01*
X32900Y152250D01*
X32725Y151596D01*
X32600Y150842D01*
X32548Y150247D01*
X32704Y150185D01*
X32929Y150116D01*
X33166Y150063D01*
X33415Y150026D01*
X33676Y150005D01*
X33950Y150000D01*
X29000Y145050D01*
X28995Y145324D01*
X28974Y145585D01*
X28937Y145835D01*
X28884Y146071D01*
X28815Y146296D01*
X28730Y146508D01*
X28630Y146707D01*
X28513Y146895D01*
X28381Y147070D01*
X28232Y147232D01*
X30031Y149031D01*
X27500D01*
X27475Y149986D01*
X27400Y150842D01*
X27275Y151596D01*
X27100Y152250D01*
X26875Y152803D01*
X26600Y153256D01*
X26275Y153608D01*
X25900Y153860D01*
X25475Y154011D01*
X25000Y154061D01*
X35000D01*
X34525Y154011D01*
D02*
G37*
G36*
X248201Y142457D02*
X247992Y142579D01*
X247746Y142688D01*
X247462Y142785D01*
X247141Y142868D01*
X246782Y142939D01*
X245953Y143042D01*
X245482Y143074D01*
X244429Y143100D01*
X243230Y148100D01*
X243767Y148112D01*
X244722Y148209D01*
X245139Y148294D01*
X245516Y148404D01*
X245853Y148537D01*
X246150Y148695D01*
X246407Y148878D01*
X246624Y149084D01*
X246801Y149315D01*
X248201Y142457D01*
D02*
G37*
G36*
X242036Y143500D02*
X241364Y142779D01*
X240763Y142031D01*
X240232Y141256D01*
X239773Y140454D01*
X239384Y139624D01*
X239066Y138767D01*
X238818Y137883D01*
X238641Y136972D01*
X238535Y136034D01*
X238500Y135068D01*
X233500Y129032D01*
X233478Y130005D01*
X233411Y130922D01*
X233299Y131784D01*
X233143Y132590D01*
X232941Y133341D01*
X232696Y134037D01*
X232405Y134677D01*
X232070Y135262D01*
X231691Y135792D01*
X231266Y136266D01*
X236000Y135068D01*
X238500D01*
X236000Y141000D01*
X234232Y142768D01*
X237768Y146303D01*
X242036Y143500D01*
D02*
G37*
G36*
X223284Y142559D02*
X223433Y142134D01*
X223684Y141759D01*
X224034Y141434D01*
X224484Y141159D01*
X225033Y140934D01*
X225683Y140759D01*
X226434Y140634D01*
X227283Y140559D01*
X228234Y140534D01*
Y135534D01*
X227283Y135509D01*
X226434Y135434D01*
X225683Y135309D01*
X225033Y135134D01*
X224484Y134909D01*
X224034Y134634D01*
X223684Y134309D01*
X223433Y133934D01*
X223284Y133509D01*
X223234Y133034D01*
Y143034D01*
X223284Y142559D01*
D02*
G37*
G36*
X67328D02*
X67477Y142134D01*
X67728Y141759D01*
X68078Y141434D01*
X68527Y141159D01*
X69078Y140934D01*
X69728Y140759D01*
X70477Y140634D01*
X71328Y140559D01*
X72277Y140534D01*
Y135534D01*
X71328Y135509D01*
X70477Y135434D01*
X69728Y135309D01*
X69078Y135134D01*
X68527Y134909D01*
X68078Y134634D01*
X67728Y134309D01*
X67477Y133934D01*
X67328Y133509D01*
X67277Y133034D01*
Y143034D01*
X67328Y142559D01*
D02*
G37*
G36*
X255021Y130892D02*
X254912Y130646D01*
X254815Y130362D01*
X254732Y130041D01*
X254661Y129682D01*
X254558Y128853D01*
X254526Y128382D01*
X254500Y127329D01*
X249500Y126130D01*
X249488Y126667D01*
X249391Y127621D01*
X249306Y128039D01*
X249196Y128416D01*
X249062Y128753D01*
X248905Y129050D01*
X248722Y129307D01*
X248516Y129524D01*
X248285Y129701D01*
X255143Y131101D01*
X255021Y130892D01*
D02*
G37*
G36*
X41969Y119530D02*
X44199Y121715D01*
X44376Y121484D01*
X44593Y121278D01*
X44850Y121095D01*
X45147Y120938D01*
X45484Y120804D01*
X45861Y120694D01*
X46279Y120609D01*
X46736Y120549D01*
X47233Y120512D01*
X47770Y120500D01*
X46571Y115500D01*
X46026Y115494D01*
X44614Y115397D01*
X44218Y115339D01*
X43538Y115185D01*
X43254Y115088D01*
X43008Y114979D01*
X42799Y114857D01*
X41969Y115670D01*
Y113000D01*
X41919Y113475D01*
X41768Y113900D01*
X41516Y114275D01*
X41164Y114600D01*
X40711Y114875D01*
X40158Y115100D01*
X39504Y115275D01*
X38954Y115366D01*
X38404Y115275D01*
X37750Y115100D01*
X37237Y114891D01*
X37201Y114857D01*
X37183Y114867D01*
X36744Y114600D01*
X36392Y114275D01*
X36140Y113900D01*
X35989Y113475D01*
X35939Y113000D01*
Y115303D01*
X35782Y115339D01*
X35386Y115397D01*
X33974Y115494D01*
X33429Y115500D01*
X32230Y120500D01*
X32767Y120512D01*
X33264Y120549D01*
X33721Y120609D01*
X34139Y120694D01*
X34516Y120804D01*
X34853Y120938D01*
X35150Y121095D01*
X35407Y121278D01*
X35624Y121484D01*
X35801Y121715D01*
X35939Y121580D01*
Y123000D01*
X35989Y122525D01*
X36140Y122100D01*
X36392Y121725D01*
X36744Y121400D01*
X37197Y121125D01*
X37750Y120900D01*
X38404Y120725D01*
X38954Y120634D01*
X39504Y120725D01*
X40158Y120900D01*
X40711Y121125D01*
X41164Y121400D01*
X41516Y121725D01*
X41768Y122100D01*
X41919Y122525D01*
X41969Y123000D01*
Y119530D01*
D02*
G37*
G36*
X254525Y122520D02*
X254599Y121670D01*
X254722Y120920D01*
X254895Y120269D01*
X255117Y119719D01*
X255389Y119270D01*
X255710Y118919D01*
X256080Y118670D01*
X256500Y118519D01*
X256970Y118469D01*
X247031D01*
X247500Y118519D01*
X247920Y118670D01*
X248290Y118919D01*
X248611Y119270D01*
X248883Y119719D01*
X249105Y120269D01*
X249278Y120920D01*
X249401Y121670D01*
X249475Y122520D01*
X249500Y123469D01*
X254500D01*
X254525Y122520D01*
D02*
G37*
G36*
X238525D02*
X238599Y121670D01*
X238722Y120920D01*
X238895Y120269D01*
X239117Y119719D01*
X239389Y119270D01*
X239710Y118919D01*
X240081Y118670D01*
X240500Y118519D01*
X240970Y118469D01*
X231031D01*
X231500Y118519D01*
X231919Y118670D01*
X232290Y118919D01*
X232611Y119270D01*
X232883Y119719D01*
X233105Y120269D01*
X233278Y120920D01*
X233401Y121670D01*
X233475Y122520D01*
X233500Y123469D01*
X238500D01*
X238525Y122520D01*
D02*
G37*
G36*
X23444Y149000D02*
X23667Y147303D01*
X24322Y145722D01*
X24932Y144928D01*
X25232Y142650D01*
X26139Y140461D01*
X27581Y138581D01*
X29461Y137139D01*
X31651Y136232D01*
X34000Y135922D01*
X36349Y136232D01*
X36852Y136440D01*
X37908Y135734D01*
Y128500D01*
X22000D01*
Y127040D01*
X16270D01*
Y118000D01*
X13730D01*
Y127040D01*
X11388D01*
Y134677D01*
X16965Y140255D01*
X18181Y142074D01*
X18608Y144220D01*
Y150000D01*
X23444D01*
Y149000D01*
D02*
G37*
G36*
X135139Y159461D02*
X136581Y157581D01*
X138461Y156138D01*
X140651Y155232D01*
X142776Y154952D01*
X144264Y153464D01*
X145622Y152422D01*
X147203Y151767D01*
X148900Y151544D01*
X192966D01*
X193864Y150646D01*
X193864Y148067D01*
X193864Y147115D01*
Y128848D01*
X193864Y128319D01*
X193864D01*
X194118Y127683D01*
X194118Y127683D01*
Y108253D01*
X194118D01*
Y107871D01*
X194118D01*
Y104712D01*
X175560D01*
X133539Y146733D01*
Y160004D01*
X134809Y160257D01*
X135139Y159461D01*
D02*
G37*
G36*
X41969Y93000D02*
X41919Y93475D01*
X41768Y93900D01*
X41516Y94275D01*
X41164Y94600D01*
X40711Y94875D01*
X40429Y94990D01*
Y94500D01*
X40215Y94690D01*
X39965Y94860D01*
X39679Y95010D01*
X39357Y95140D01*
X38999Y95250D01*
X38691Y95320D01*
X38419Y95275D01*
X37769Y95100D01*
X37220Y94875D01*
X36769Y94600D01*
X36419Y94275D01*
X36170Y93900D01*
X36019Y93475D01*
X35970Y93000D01*
Y103000D01*
X36019Y102525D01*
X36170Y102100D01*
X36419Y101725D01*
X36769Y101400D01*
X37220Y101125D01*
X37769Y100900D01*
X38419Y100725D01*
X38691Y100680D01*
X38999Y100750D01*
X39357Y100860D01*
X39679Y100990D01*
X39965Y101140D01*
X40215Y101310D01*
X40429Y101500D01*
Y101010D01*
X40711Y101125D01*
X41164Y101400D01*
X41516Y101725D01*
X41768Y102100D01*
X41919Y102525D01*
X41969Y103000D01*
Y93000D01*
D02*
G37*
G36*
X256500Y105480D02*
X256080Y105330D01*
X255710Y105080D01*
X255389Y104731D01*
X255117Y104281D01*
X254895Y103730D01*
X254722Y103081D01*
X254599Y102331D01*
X254525Y101481D01*
X254500Y100531D01*
X249500D01*
X249475Y101481D01*
X249401Y102331D01*
X249278Y103081D01*
X249105Y103730D01*
X248883Y104281D01*
X248611Y104731D01*
X248290Y105080D01*
X247920Y105330D01*
X247500Y105480D01*
X247031Y105531D01*
X256970D01*
X256500Y105480D01*
D02*
G37*
G36*
X198179Y93156D02*
X198129Y93631D01*
X197978Y94056D01*
X197726Y94431D01*
X197374Y94756D01*
X196921Y95031D01*
X196368Y95256D01*
X195714Y95431D01*
X194960Y95556D01*
X194104Y95631D01*
X193148Y95656D01*
Y100656D01*
X194104Y100681D01*
X194960Y100756D01*
X195714Y100881D01*
X196368Y101056D01*
X196921Y101281D01*
X197374Y101556D01*
X197726Y101881D01*
X197978Y102256D01*
X198129Y102681D01*
X198179Y103156D01*
Y93156D01*
D02*
G37*
G36*
X223538Y99525D02*
X223687Y99100D01*
X223938Y98725D01*
X224287Y98400D01*
X224737Y98125D01*
X225287Y97900D01*
X225938Y97725D01*
X226688Y97600D01*
X227537Y97525D01*
X228487Y97500D01*
Y92500D01*
X223487Y92472D01*
Y100000D01*
X223538Y99525D01*
D02*
G37*
G36*
X246485Y83690D02*
X246531Y83441D01*
X246607Y83220D01*
X246714Y83029D01*
X246852Y82867D01*
X247020Y82735D01*
X247219Y82632D01*
X247449Y82559D01*
X247709Y82515D01*
X248000Y82500D01*
Y77500D01*
X247705Y77475D01*
X247441Y77400D01*
X247208Y77275D01*
X247005Y77100D01*
X246833Y76875D01*
X246693Y76600D01*
X246583Y76275D01*
X246504Y75900D01*
X246456Y75475D01*
X246439Y75000D01*
X246469Y83969D01*
X246485Y83690D01*
D02*
G37*
G36*
X216008Y74021D02*
X216254Y73912D01*
X216538Y73815D01*
X216859Y73732D01*
X217218Y73661D01*
X218047Y73558D01*
X218518Y73526D01*
X219571Y73500D01*
X220770Y68500D01*
X220233Y68488D01*
X219279Y68391D01*
X218861Y68306D01*
X218484Y68196D01*
X218147Y68063D01*
X217850Y67905D01*
X217593Y67722D01*
X217376Y67516D01*
X217199Y67285D01*
X215799Y74143D01*
X216008Y74021D01*
D02*
G37*
G36*
X12291Y44845D02*
X12945Y44309D01*
X13309Y44047D01*
X14112Y43539D01*
X15014Y43048D01*
X16016Y42575D01*
X9494Y40167D01*
X9675Y40597D01*
X9801Y41018D01*
X9871Y41431D01*
X9886Y41834D01*
X9845Y42229D01*
X9749Y42615D01*
X9597Y42991D01*
X9391Y43359D01*
X9128Y43719D01*
X8810Y44069D01*
X12002Y45120D01*
X12291Y44845D01*
D02*
G37*
G36*
X15515Y39394D02*
X15560Y38879D01*
X15635Y38424D01*
X15740Y38030D01*
X15875Y37697D01*
X16040Y37424D01*
X16235Y37212D01*
X16460Y37060D01*
X16715Y36969D01*
X17000Y36939D01*
X11000D01*
X11285Y36969D01*
X11540Y37060D01*
X11765Y37212D01*
X11960Y37424D01*
X12125Y37697D01*
X12260Y38030D01*
X12365Y38424D01*
X12440Y38879D01*
X12485Y39394D01*
X12500Y39969D01*
X15500D01*
X15515Y39394D01*
D02*
G37*
G36*
X17120Y34052D02*
X15820Y32614D01*
X15680Y32416D01*
X15580Y32247D01*
X15520Y32109D01*
X15500Y32000D01*
X12500D01*
X12480Y32109D01*
X12420Y32247D01*
X12320Y32416D01*
X12180Y32614D01*
X12000Y32842D01*
X11520Y33387D01*
X10500Y34429D01*
X17500D01*
X17120Y34052D01*
D02*
G37*
%LPC*%
G36*
X102270Y135438D02*
Y129270D01*
X108438D01*
X108346Y129968D01*
X107586Y131803D01*
X106378Y133378D01*
X104803Y134586D01*
X102968Y135346D01*
X102270Y135438D01*
D02*
G37*
G36*
X99730D02*
X99032Y135346D01*
X97198Y134586D01*
X95622Y133378D01*
X94414Y131803D01*
X93654Y129968D01*
X93562Y129270D01*
X99730D01*
Y135438D01*
D02*
G37*
G36*
X108438Y126730D02*
X102270D01*
Y120562D01*
X102968Y120654D01*
X104803Y121414D01*
X106378Y122622D01*
X107586Y124198D01*
X108346Y126032D01*
X108438Y126730D01*
D02*
G37*
G36*
X99730D02*
X93562D01*
X93654Y126032D01*
X94414Y124198D01*
X95622Y122622D01*
X97198Y121414D01*
X99032Y120654D01*
X99730Y120562D01*
Y126730D01*
D02*
G37*
G36*
X96270Y95438D02*
Y95330D01*
X97007D01*
X96968Y95346D01*
X96270Y95438D01*
D02*
G37*
G36*
X93730D02*
X93032Y95346D01*
X92993Y95330D01*
X93730D01*
Y95438D01*
D02*
G37*
G36*
X97504Y95124D02*
X97506Y95031D01*
X97510Y94792D01*
X97590Y93825D01*
X97660Y93395D01*
X97750Y93001D01*
X97860Y92643D01*
X97990Y92321D01*
X98140Y92035D01*
X98310Y91785D01*
X98500Y91571D01*
X96270D01*
Y89270D01*
X102438D01*
X102346Y89968D01*
X101586Y91803D01*
X100378Y93378D01*
X98802Y94586D01*
X97504Y95124D01*
D02*
G37*
G36*
X92492Y95122D02*
X91198Y94586D01*
X89622Y93378D01*
X88414Y91803D01*
X87654Y89968D01*
X87562Y89270D01*
X93730D01*
Y91571D01*
X91500D01*
X91690Y91785D01*
X91860Y92035D01*
X92010Y92321D01*
X92140Y92643D01*
X92250Y93001D01*
X92340Y93395D01*
X92410Y93825D01*
X92460Y94290D01*
X92492Y95122D01*
D02*
G37*
G36*
X89690Y86730D02*
X87562D01*
X87654Y86032D01*
X88192Y84733D01*
X88422Y84972D01*
X89050Y85713D01*
X89305Y86066D01*
X89520Y86409D01*
X89690Y86730D01*
D02*
G37*
G36*
X93730D02*
X91220D01*
X93730Y84220D01*
Y86730D01*
D02*
G37*
G36*
X69848Y86599D02*
X55878D01*
Y79614D01*
X67277D01*
Y84029D01*
X67328Y83928D01*
X67477Y83838D01*
X67728Y83759D01*
X68078Y83690D01*
X68527Y83632D01*
X69728Y83548D01*
X69848Y83545D01*
Y86599D01*
D02*
G37*
G36*
X88398Y84235D02*
X88414Y84197D01*
X89622Y82622D01*
X91198Y81414D01*
X91236Y81398D01*
X88875Y83759D01*
X88398Y84235D01*
D02*
G37*
G36*
X102438Y86730D02*
X96270D01*
Y80562D01*
X96968Y80654D01*
X98802Y81414D01*
X100378Y82622D01*
X101586Y84197D01*
X102346Y86032D01*
X102438Y86730D01*
D02*
G37*
G36*
X93730Y82690D02*
X93409Y82519D01*
X93066Y82304D01*
X92713Y82050D01*
X92348Y81756D01*
X91737Y81190D01*
X93032Y80654D01*
X93730Y80562D01*
Y82690D01*
D02*
G37*
G36*
X69848Y77074D02*
X67593D01*
X67477Y76900D01*
X67328Y76475D01*
X67277Y76000D01*
Y77074D01*
X55878D01*
Y72684D01*
X67277Y72660D01*
X66631Y72650D01*
X65603Y72575D01*
X65220Y72509D01*
X64925Y72425D01*
X64718Y72321D01*
X64599Y72199D01*
X64567Y72058D01*
X64624Y71898D01*
X64768Y71720D01*
X61956Y70089D01*
X69848D01*
Y77074D01*
D02*
G37*
G36*
X53338D02*
X41969D01*
Y73344D01*
X41919Y73819D01*
X41768Y74244D01*
X41516Y74619D01*
X41164Y74944D01*
X40711Y75219D01*
X40158Y75444D01*
X39504Y75619D01*
X39368Y75641D01*
Y70089D01*
X53338D01*
Y72684D01*
X53222Y72690D01*
X53338Y72690D01*
Y77074D01*
D02*
G37*
G36*
X55878Y72173D02*
Y70089D01*
X59242D01*
X58871Y70405D01*
X58162Y70939D01*
X57453Y71403D01*
X56746Y71795D01*
X56039Y72116D01*
X55878Y72173D01*
D02*
G37*
G36*
X147270Y32438D02*
Y26270D01*
X153438D01*
X153346Y26968D01*
X152586Y28802D01*
X151378Y30378D01*
X149803Y31586D01*
X147968Y32346D01*
X147270Y32438D01*
D02*
G37*
G36*
X144730D02*
X144032Y32346D01*
X142198Y31586D01*
X140622Y30378D01*
X139414Y28802D01*
X138654Y26968D01*
X138562Y26270D01*
X144730D01*
Y32438D01*
D02*
G37*
G36*
X153438Y23730D02*
X147270D01*
Y21429D01*
X149500D01*
X149310Y21215D01*
X149140Y20965D01*
X148990Y20679D01*
X148860Y20357D01*
X148750Y19999D01*
X148660Y19605D01*
X148590Y19175D01*
X148540Y18710D01*
X148508Y17878D01*
X149803Y18414D01*
X151378Y19622D01*
X152586Y21198D01*
X153346Y23032D01*
X153438Y23730D01*
D02*
G37*
G36*
X144730D02*
X138562D01*
X138654Y23032D01*
X139414Y21198D01*
X140622Y19622D01*
X142198Y18414D01*
X143496Y17876D01*
X143490Y18208D01*
X143410Y19175D01*
X143340Y19605D01*
X143250Y19999D01*
X143140Y20357D01*
X143010Y20679D01*
X142860Y20965D01*
X142690Y21215D01*
X142500Y21429D01*
X144730D01*
Y23730D01*
D02*
G37*
G36*
X148006Y17670D02*
X147270D01*
Y17562D01*
X147968Y17654D01*
X148006Y17670D01*
D02*
G37*
G36*
X144730D02*
X143994D01*
X144032Y17654D01*
X144730Y17562D01*
Y17670D01*
D02*
G37*
G36*
X222500Y34500D02*
X199500D01*
Y11500D01*
X222500D01*
Y34500D01*
D02*
G37*
G36*
X185600Y34599D02*
X182598Y34204D01*
X179800Y33045D01*
X177398Y31202D01*
X175555Y28800D01*
X174396Y26002D01*
X174001Y23000D01*
X174396Y19998D01*
X175555Y17200D01*
X177398Y14798D01*
X179800Y12955D01*
X182598Y11796D01*
X185600Y11401D01*
X188602Y11796D01*
X191400Y12955D01*
X193802Y14798D01*
X195645Y17200D01*
X196804Y19998D01*
X197199Y23000D01*
X196804Y26002D01*
X195645Y28800D01*
X193802Y31202D01*
X191400Y33045D01*
X188602Y34204D01*
X185600Y34599D01*
D02*
G37*
%LPD*%
D10*
X27000Y207000D02*
D03*
X11000D02*
D03*
X252000Y112000D02*
D03*
X236000D02*
D03*
X15000Y98000D02*
D03*
X31000D02*
D03*
X31000Y118000D02*
D03*
X15000D02*
D03*
D11*
X30000Y159000D02*
D03*
Y175000D02*
D03*
X13000Y175000D02*
D03*
Y159000D02*
D03*
D12*
X54608Y218044D02*
D03*
Y198232D02*
D03*
Y178166D02*
D03*
Y158354D02*
D03*
Y138034D02*
D03*
Y118222D02*
D03*
Y98410D02*
D03*
Y78344D02*
D03*
X210818Y78090D02*
D03*
Y98156D02*
D03*
Y117968D02*
D03*
X210564Y138034D02*
D03*
Y158100D02*
D03*
Y177912D02*
D03*
Y198232D02*
D03*
Y218044D02*
D03*
D13*
X82548Y57516D02*
D03*
X102360D02*
D03*
X122172D02*
D03*
X142492D02*
D03*
X162304D02*
D03*
X182624D02*
D03*
D14*
X172844Y98156D02*
X210818D01*
X126983Y144017D02*
X172844Y98156D01*
X126983Y144017D02*
Y183280D01*
X151969Y193031D02*
Y205280D01*
Y193031D02*
X167088Y177912D01*
X90000Y193000D02*
X120000Y223000D01*
X90000Y154728D02*
Y193000D01*
X73306Y138034D02*
X90000Y154728D01*
X54608Y138034D02*
X73306D01*
X148900Y158100D02*
X210564D01*
X143000Y164000D02*
X148900Y158100D01*
X167088Y177912D02*
X210564D01*
X54608Y218044D02*
X76956D01*
X80000Y215000D01*
Y183000D02*
Y215000D01*
X75166Y178166D02*
X80000Y183000D01*
X54608Y178166D02*
X75166D01*
X54608Y79608D02*
X56000Y81000D01*
X88000D01*
X95000Y88000D01*
X210564Y218044D02*
X243956D01*
X252000Y210000D01*
Y171000D02*
Y210000D01*
X240700Y158300D02*
X252000D01*
X235000Y164000D02*
X240700Y158300D01*
X235000Y164000D02*
Y191000D01*
X227768Y198232D02*
X235000Y191000D01*
X210564Y198232D02*
X227768D01*
X210564Y138034D02*
X233034D01*
X252000Y112000D02*
Y132900D01*
X252000Y112000D02*
X252000Y112000D01*
X233034Y138034D02*
X236000Y135068D01*
X240600Y145600D02*
X252000D01*
X233034Y138034D02*
X236000Y141000D01*
X240600Y145600D01*
X236000Y112000D02*
Y135068D01*
Y141000D01*
X213974Y95000D02*
X244000D01*
X210818Y98156D02*
X213974Y95000D01*
X232000Y71000D02*
X241000Y80000D01*
X248000D01*
X252000Y84000D01*
Y112000D01*
X51564Y215000D02*
X54608Y218044D01*
X81000Y233000D02*
X81500Y233500D01*
X133500D01*
X137000Y230000D01*
Y215000D02*
Y230000D01*
X131000Y209000D02*
X137000Y215000D01*
X24000Y204000D02*
X35000Y215000D01*
X51564D01*
X95000Y88000D02*
Y123000D01*
X214000Y71000D02*
X232000D01*
X54608Y78344D02*
X63000Y69952D01*
X21656Y78344D02*
X54608D01*
X15000Y85000D02*
X21656Y78344D01*
X15000Y85000D02*
Y118000D01*
X31000Y98000D02*
X44000D01*
X54386Y118000D02*
X54608Y118222D01*
X31000Y118000D02*
X54386D01*
X63000Y16000D02*
Y69952D01*
X40000Y233000D02*
X81000D01*
X17000Y220000D02*
X27000D01*
X10000Y213000D02*
X17000Y220000D01*
X10000Y206000D02*
Y213000D01*
X27000Y220000D02*
X40000Y233000D01*
X139780Y6780D02*
X146000Y13000D01*
X63000Y16000D02*
X72220Y6780D01*
X139780D01*
X45232Y198232D02*
X54608D01*
X30000Y183000D02*
X45232Y198232D01*
X30000Y175000D02*
Y183000D01*
X13000Y175000D02*
X30000D01*
X13000Y175000D02*
X13000Y175000D01*
X30000Y149000D02*
X34000Y145000D01*
X30000Y149000D02*
Y159000D01*
X146000Y13000D02*
Y25000D01*
D15*
X54608Y78344D02*
Y79608D01*
X13000Y144220D02*
Y159000D01*
X5780Y137000D02*
X13000Y144220D01*
X5780Y49220D02*
Y137000D01*
Y49220D02*
X14000Y41000D01*
Y32000D02*
Y41000D01*
X33000Y145000D02*
X34000D01*
D16*
X237300Y235000D02*
D03*
Y32000D02*
D03*
X26700D02*
D03*
Y235000D02*
D03*
X251000Y133900D02*
D03*
Y146600D02*
D03*
Y159300D02*
D03*
X126983Y183280D02*
D03*
X151969Y205280D02*
D03*
X120000Y223000D02*
D03*
X143000Y164000D02*
D03*
X95000Y88000D02*
D03*
X40000Y119000D02*
D03*
X44000Y98000D02*
D03*
X101000Y128000D02*
D03*
X213000Y70000D02*
D03*
X14000Y38000D02*
D03*
X34000Y145000D02*
D03*
X146000Y25000D02*
D03*
D17*
X250000Y235000D02*
D03*
Y32000D02*
D03*
X14000D02*
D03*
Y235000D02*
D03*
D18*
X251000Y172000D02*
D03*
D19*
X185600Y23000D02*
D03*
D20*
X211000D02*
D03*
M02*
